<svg width="18.000000" height="17.000000" viewBox="0 0 18 17" fill="none" xmlns="http://www.w3.org/2000/svg" xmlns:xlink="http://www.w3.org/1999/xlink">
	<desc>
			Created with Pixso.
	</desc>
	<defs/>
	<path id="Vector" d="M2 17L6 17C6.53 17 7.03 16.78 7.41 16.41C7.78 16.03 8 15.53 8 15L8 11.31L10 11.31L10 15C10 15.53 10.21 16.03 10.58 16.41C10.96 16.78 11.46 17 12 17L16 17C16.53 17 17.03 16.78 17.41 16.41C17.78 16.03 18 15.53 18 15L18 7.07C18 6.77 17.93 6.47 17.8 6.2C17.66 5.93 17.47 5.69 17.24 5.5L10.24 -0.03C9.88 -0.31 9.45 -0.46 9 -0.46C8.54 -0.46 8.11 -0.31 7.75 -0.03L0.75 5.5C0.52 5.69 0.33 5.93 0.19 6.2C0.06 6.47 0 6.77 0 7.07L0 15C0 15.53 0.21 16.03 0.58 16.41C0.96 16.78 1.46 17 2 17ZM2 15L6 15L6 11C6 10.46 6.21 9.96 6.58 9.58C6.96 9.21 7.46 9 8 9L10 9C10.53 9 11.03 9.21 11.41 9.58C11.78 9.96 12 10.46 12 11L12 15L16 15L16 7L9 1.5L2 7L2 15Z" fill="#808080" fill-opacity="1.000000" fill-rule="evenodd"/>
</svg>
