<svg width="29" height="31" fill="none" xmlns="http://www.w3.org/2000/svg"><path fill-rule="evenodd" clip-rule="evenodd" d="M2 10a1 1 0 0 1 1-1h.768a2 2 0 0 1 1.966 1.637L5.986 12h13.757a2 2 0 0 1 1.949 2.45l-1.846 8a2 2 0 0 1-1.95 1.55H7.019a1 1 0 0 1-1.005-.836L3.768 11H3a1 1 0 0 1-1-1Zm5.832 12h10.065l1.846-8H6.355l1.477 8ZM8 25a2 2 0 1 0 0 4 2 2 0 0 0 0-4Zm10 0a2 2 0 1 0 0 4 2 2 0 0 0 0-4Z" fill="#666"/><rect x="12" width="17" height="17" rx="8.5" fill="#E0493E"/><path d="M20.48 7.7c.88.048 1.548.288 2.004.72.464.424.696.98.696 1.668 0 .48-.116.908-.348 1.284-.232.368-.576.66-1.032.876-.456.216-1.012.324-1.668.324a5.154 5.154 0 0 1-1.728-.288c-.536-.2-.968-.464-1.296-.792l.42-.684c.28.288.652.524 1.116.708.464.176.96.264 1.488.264.688 0 1.22-.148 1.596-.444.376-.304.564-.72.564-1.248 0-.52-.188-.928-.564-1.224-.376-.296-.944-.444-1.704-.444h-.6v-.636l2.328-2.916h-4.296V4.1h5.4v.612L20.48 7.7Z" fill="#fff"/></svg>