<svg width="168" height="41" fill="none" xmlns="http://www.w3.org/2000/svg"><path d="m25.982 6.583-5.2 2.53 7.183 2.618-1.983-5.148Zm6.19 14.352-2.933 6.845 5.167-1.969-2.235-4.876Zm-3.125 7.464-2.063 5.866 7.32-.159.228-7.796-5.485 2.09Zm-2.834 6.105-5.49-2.266-5.426 2.496 5.648 5.026 5.268-5.256Zm-4.86-2.556 5.16 2.128 1.901-5.392-7.06 3.264ZM40.06 20.171l-5.23-5.42-2.383 5.563 2.384 5.203 5.23-5.346Zm-27.985 8.021-3.047-7.398-2.629 5.215.032.012c1.905.713 3.78 1.437 5.644 2.171ZM6.67 34.274l7.718.113-2.088-5.634-5.848-2.187.218 7.708Zm6.189-5.29a296.54 296.54 0 0 1 2.047 5.366l5.176-2.376-7.223-2.99Zm21.548-14.557-5.522-1.893 3.273 7.143 2.25-5.25Zm-28.654.552L.938 20.558 5.98 25.67l2.774-5.5-.026-.06-2.977-5.132Zm6.16-2.431L6.18 14.701l2.843 4.872 2.888-7.025Zm8.293-3.117-7.771 2.915a312.569 312.569 0 0 1-3.11 7.82 736.62 736.62 0 0 1 3.319 8.238c2.7 1.067 5.375 2.155 8.066 3.26l7.87-3.638 3.31-7.728-3.638-7.939-8.046-2.928Zm-5.272-3.56 5.348 2.905 5.346-2.581L20.052.94l-5.12 4.93Zm4.784 3.178-5.071-2.76a244.75 244.75 0 0 1-1.971 5.42l6.854-2.572.188-.088ZM6.14 6.047l6.451-4.345.138-.06L20.354 0h.165l7.494 1.596.124.051 6.84 4.203.12.112.197.288.018.011 3.95 5.751.062.145 1.662 8.115v.157l-1.468 7.466-.057.14-4.126 6.402-.106.11-6.363 4.417-.138.06-7.689 1.757h-.16l-8.023-1.506-.145-.058-6.648-4.37-.114-.113-4.216-6.376-.055-.134L0 20.702v-.16l1.5-7.66.061-.148 4.47-6.578.11-.109Zm13.05-4.989-5.96 1.288 1.35 3.175 4.61-4.463ZM27.547 2.3 20.67.835l5.438 5.125.076-.04 1.363-3.62Zm6.667 3.998-.025-.016-7.714.159 2.095 5.428.011.023 5.887 2.02-.254-7.614Zm4.144 5.79-3.62-5.268.246 7.023 3.374-1.755Zm.216.345v-.044l-.055-.078.055.122Zm1.417 6.928-1.394-6.822-3.455 1.796 4.849 5.026Zm-1.147 7.851 1.25-6.358-4.929 5.038 3.68 1.32Zm-4.025 6.554 3.897-6.052-3.688-1.325-.209 7.377Zm-5.96 4.227 4.844-3.363-6.607.143 1.763 3.22Zm-7.285 1.84 6.858-1.566-1.87-3.423-4.988 4.99Zm-8.228-1.274 6.946 1.305-5.392-4.799-1.554 3.494Zm-5.96-3.772 5.495 3.605 1.552-3.495-7.047-.11Zm-4.97-6.878.014.072 3.711 5.63-.201-7.13-3.467 1.56-.057-.132ZM.931 21.266l1.403 6.28 3.317-1.498-4.72-4.782Zm1.26-7.816L.95 19.782l4.39-5.095-3.147-1.237Zm3.554-5.47-3.388 4.987 3.177 1.249.21-6.236Zm.965-1.367-.069.049-.362.53-.23 7.02 6.1-2.301 1.981-5.657-7.42.36Zm6.042-4.069L7.517 6.066l6.602-.313-1.367-3.209Zm11.611 21.183c.116.198.18.42.19.649 0 .412-.34.619-1.029.619-.144 0-.229.069-.229.18 0 .11.076.153.23.153.27 0 .616-.011 1.04-.03.424-.018.727-.03.933-.03.407 0 .947.009 1.62.026a63.17 63.17 0 0 0 1.193.034c.12 0 .23-.05.23-.154 0-.103-.102-.18-.297-.18a1.912 1.912 0 0 1-1.06-.36 2.465 2.465 0 0 1-.838-1.003l-6.042-12.514-6.084 12.514a2.45 2.45 0 0 1-.883 1.012c-.33.223-.718.345-1.116.352-.14 0-.209.069-.209.18 0 .11.076.153.23.153.295 0 .536-.011.717-.03.275-.024.551-.034.827-.03.397 0 .998.056 1.605.056.142 0 .23-.046.23-.15 0-.103-.079-.18-.23-.18-.676 0-1.018-.197-1.018-.618.01-.229.075-.451.19-.649l1.33-2.779h7.148l1.322 2.78Zm-4.369-9.104 2.882 5.994h-6.809l3.478-7.227.45 1.233Zm8.023-12.134-1.3 3.45 6.667-.147-5.367-3.303ZM61.81 23.922a2.08 2.08 0 0 0-.077-.216 3.775 3.775 0 0 0-.113-.247l-1.93-4.032H49.214l-1.93 4.035c-.041.085-.08.168-.113.246-.03.071-.056.144-.078.218a1.459 1.459 0 0 0-.036.161.793.793 0 0 0 0 .118v.03c0 .053.012.105.034.154.023.04.056.075.096.099a.954.954 0 0 0 .315.11c.173.031.35.046.527.044h.068c.11-.001.22.015.324.048.1.031.196.08.28.145a.774.774 0 0 1 .229.283.86.86 0 0 1 .07.357v.043a.779.779 0 0 1-.084.322.734.734 0 0 1-.486.382h-.108v.018h-.275c-.495 0-1.025-.027-1.497-.052a18.27 18.27 0 0 0-.96-.035h-.736l-.275.014c-.083 0-.156.011-.23.02h-.018c-.076 0-.151.017-.23.021l-.279.014h-.65c-.103 0-.206-.01-.306-.034a.88.88 0 0 1-.268-.113.749.749 0 0 1-.254-.276.81.81 0 0 1-.085-.366.83.83 0 0 1 .069-.34.774.774 0 0 1 .204-.276l.066-.058a.882.882 0 0 1 .186-.094c.098-.034.2-.055.302-.062h.037a2.284 2.284 0 0 0 .708-.108c.127-.04.251-.09.372-.145.127-.062.25-.13.369-.207.124-.065.244-.139.357-.221a3.046 3.046 0 0 0 .592-.677 4.27 4.27 0 0 0 .188-.317l10.045-20.66 9.828 20.352.098.205c.068.144.145.285.23.42a3.118 3.118 0 0 0 .555.672 3.166 3.166 0 0 0 .683.467 2.502 2.502 0 0 0 .675.232c.107.019.215.028.324.028.22-.019.44.034.628.152a.777.777 0 0 1 .284.288.842.842 0 0 1 .014.754.753.753 0 0 1-.245.274.83.83 0 0 1-.264.117 1.157 1.157 0 0 1-.3.037h-.243l-.445-.012-.546-.016-.646-.02-.748-.017-.666-.013h-1.688l-.383.016-.458.018h-.012l-.458.018-.44.014h-.738c-.1.001-.201-.011-.298-.037a.823.823 0 0 1-.266-.117.754.754 0 0 1-.245-.274.79.79 0 0 1-.083-.36.825.825 0 0 1 .073-.348.768.768 0 0 1 .216-.278.919.919 0 0 1 .261-.145c.1-.033.203-.053.307-.06h.11c.18 0 .36-.018.537-.05.113-.021.223-.06.323-.118a.26.26 0 0 0 .094-.092.31.31 0 0 0 .027-.14v-.1a.251.251 0 0 0 0-.057 1.068 1.068 0 0 0-.034-.16l-.004.004ZM58.893 17.8c-1.458-3.046-3.209-6.19-4.392-9.337l-4.49 9.337h8.882Zm30.312 6.086a1.98 1.98 0 0 0-.078-.194 2.761 2.761 0 0 0-.103-.23l-.025-.048-6.81-13.958v-.023l-.276-.69-7.24 14.722c-.043.094-.08.18-.107.253a1.746 1.746 0 0 0-.11.384.63.63 0 0 0 0 .124v.03a.313.313 0 0 0 .034.154c.023.04.055.073.094.097a.995.995 0 0 0 .314.112c.175.03.351.044.528.042h.068c.11 0 .219.015.324.046a.862.862 0 0 1 .28.15.745.745 0 0 1 .229.282c.05.11.074.23.073.352v.037a.759.759 0 0 1-.083.32.722.722 0 0 1-.229.264.784.784 0 0 1-.259.12l-.078.018v.019h-.31c-.499 0-1.04-.03-1.52-.053l-.508-.026h-1.16l-.275.014-.23.019h-.018l-.229.02-.287.014h-.672a1.086 1.086 0 0 1-.316-.044.866.866 0 0 1-.275-.14.75.75 0 0 1-.229-.278.815.815 0 0 1-.075-.354.807.807 0 0 1 .068-.336.764.764 0 0 1 .456-.41c.093-.031.19-.05.287-.057h.032c.28-.007.559-.051.828-.131a2.6 2.6 0 0 0 .704-.334 2.85 2.85 0 0 0 .605-.561c.186-.23.346-.481.477-.748L83.143 2.49l9.825 20.125.099.202a3.754 3.754 0 0 0 .495.775 3.168 3.168 0 0 0 .637.582l.037.026c.108.068.215.128.32.183.112.059.228.109.347.15a2.024 2.024 0 0 0 .614.108c.115 0 .23.01.342.035.104.02.204.058.296.11a.762.762 0 0 1 .307.288.814.814 0 0 1 .016.763.742.742 0 0 1-.252.276.83.83 0 0 1-.269.115 1.25 1.25 0 0 1-.304.035h-.628l-.374-.012-.413-.027h-.312a102.92 102.92 0 0 0-1.242-.032c-.23 0-.445-.012-.688-.014H90.7l-.383.014-.458.02-.459.02-.436.015h-.754a1.16 1.16 0 0 1-.302-.037.892.892 0 0 1-.269-.122.724.724 0 0 1-.24-.274.766.766 0 0 1-.083-.359.792.792 0 0 1 .074-.347.734.734 0 0 1 .229-.278.869.869 0 0 1 .261-.143c.098-.033.2-.053.303-.06h.11c.177-.001.353-.018.527-.05.112-.02.22-.06.319-.115a.263.263 0 0 0 .09-.092.293.293 0 0 0 .029-.143v-.184a1.357 1.357 0 0 0-.037-.17m11.766-20.338c.186 0 .365-.014.544-.014h.85l.064.135a746.927 746.927 0 0 0 2.57 5.431c1.912 4.014 3.837 8.051 5.557 12.1l8.974-17.574h1.396l.633-.014.718-.02.651-.02.538-.015h.661c.106 0 .212.014.314.043.099.03.192.078.275.14a.735.735 0 0 1 .229.28c.051.11.077.231.076.353a.735.735 0 0 1-.11.398.788.788 0 0 1-.308.274 1.209 1.209 0 0 1-.272.094 2.01 2.01 0 0 1-.314.037h-.026a1.678 1.678 0 0 0-.589.099 1.819 1.819 0 0 0-.259.124 1.677 1.677 0 0 0-.229.173 1.09 1.09 0 0 0-.188.2c-.054.07-.099.148-.133.23a1.39 1.39 0 0 0-.083.283 1.941 1.941 0 0 0-.027.34v16.562c0 .122.01.244.03.364.018.1.048.198.089.292.035.082.08.16.135.23.055.066.116.125.184.177h.014a1.741 1.741 0 0 0 .557.292c.107.034.216.059.327.074.122.011.243.014.365.009.11-.001.22.016.325.05a.76.76 0 0 1 .276.166l.075.07v.013a.68.68 0 0 1 .115.195.898.898 0 0 1 .062.336v.046a.745.745 0 0 1-.569.704 1.171 1.171 0 0 1-.291.037h-.057l-1.114-.023-1.037-.018h-2.452l-.755.011-.859.018-.917.026h-.032a.858.858 0 0 1-.319-.06.73.73 0 0 1-.426-.446.938.938 0 0 1 .002-.621.744.744 0 0 1 .41-.424.992.992 0 0 1 .285-.066h.229c.104 0 .209-.009.312-.026a1.43 1.43 0 0 0 .272-.07 1.446 1.446 0 0 0 .459-.286.965.965 0 0 0 .163-.186c.048-.073.088-.15.119-.23a1.44 1.44 0 0 0 .073-.274c.019-.109.028-.219.028-.33V9.065L109.29 27.32l-8.594-18.153V23.15c-.001.122.01.243.032.363.019.1.049.199.09.293.035.082.08.16.135.23.058.067.123.128.195.181a1.777 1.777 0 0 0 .55.287c.106.035.215.06.325.074.121.017.243.026.365.026a.97.97 0 0 1 .323.05c.102.035.196.09.275.164a.73.73 0 0 1 .195.278.87.87 0 0 1 .062.338.74.74 0 0 1-.326.633.878.878 0 0 1-.268.12c-.098.026-.2.039-.302.038h-.784l-.287-.002h-.91l-.3-.014h-.676l-.564.014-.633.016-.688.02h-.032a.952.952 0 0 1-.316-.052.77.77 0 0 1-.456-.435.85.85 0 0 1-.062-.329.777.777 0 0 1 .052-.37.712.712 0 0 1 .2-.27.746.746 0 0 1 .245-.142.975.975 0 0 1 .28-.06h.229c.104 0 .207-.008.31-.025.182-.028.356-.093.513-.19.08-.05.157-.105.23-.166a1.05 1.05 0 0 0 .279-.417 1.3 1.3 0 0 0 .075-.273 1.84 1.84 0 0 0 .026-.33V6.541a1.789 1.789 0 0 0-.026-.324 1.329 1.329 0 0 0-.073-.274 1.178 1.178 0 0 0-.12-.23 1.186 1.186 0 0 0-.393-.364 1.308 1.308 0 0 0-.511-.19 1.875 1.875 0 0 0-.31-.026h-.23a.83.83 0 0 1-.313-.057.735.735 0 0 1-.262-.175.723.723 0 0 1-.165-.262.923.923 0 0 1 0-.64.76.76 0 0 1 .459-.435.95.95 0 0 1 .316-.052h.346l.44.011.47.016.424.02h.03l.23.015h.229c.21 0 .373 0 .584-.019l.342-.014c.124 0 .268-.011.447-.016l-.005.01Zm44.195 20.323a2.94 2.94 0 0 0-.206-.504l-1.994-4.166h-10.759l-1.992 4.166c-.084.161-.154.33-.208.504a1.12 1.12 0 0 0-.053.354v.023a.498.498 0 0 0 .229.447c.299.148.631.214.963.19h.069a.706.706 0 0 1 .458.14.547.547 0 0 1 .207.46v.014a.504.504 0 0 1-.23.428.731.731 0 0 1-.417.11h-.02c-.514 0-1.046-.027-1.523-.05-.364-.018-.687-.037-.978-.037-.292 0-.553 0-.745.012-.193.011-.374.018-.512.032a8.448 8.448 0 0 1-.513.037c-.195.01-.422.011-.64.011a.785.785 0 0 1-.458-.11.498.498 0 0 1-.229-.446.543.543 0 0 1 .192-.44.71.71 0 0 1 .426-.156h.021c.265 0 .528-.04.78-.122a3.26 3.26 0 0 0 .795-.377 3.17 3.17 0 0 0 .713-.614c.22-.255.406-.537.552-.84L138.899 2.8l9.717 20.125c.142.298.319.578.527.833.194.235.42.44.672.61.234.16.487.29.754.383.234.082.48.125.727.127a.969.969 0 0 1 .507.117.537.537 0 0 1 .268.481.503.503 0 0 1-.229.444.769.769 0 0 1-.436.113l-.688-.014-1.189-.037a127.31 127.31 0 0 0-1.419-.03c-.374 0-.739-.011-1.103-.011-.181 0-.381 0-.596.011-.216.012-.514.019-.844.035l-.917.034c-.3 0-.545.012-.731.012a.763.763 0 0 1-.435-.113.514.514 0 0 1-.23-.444.537.537 0 0 1 .204-.444.745.745 0 0 1 .436-.152h.096c.339.017.677-.053.981-.202a.481.481 0 0 0 .23-.43v-.028a1.25 1.25 0 0 0-.055-.354m-2.77-5.822-4.263-8.907-.012-.025-.458-1.23-4.888 10.162h9.621Zm13.067 6.372c.374.122.757.213 1.146.272a7.73 7.73 0 0 0 1.211.092c.362.001.724-.034 1.079-.106.322-.068.636-.174.933-.315.287-.141.556-.316.8-.522.257-.219.488-.467.688-.738a5.862 5.862 0 0 0 .915-1.948c.098-.378.166-.763.201-1.151.038-.427.046-.856.023-1.284a9.108 9.108 0 0 0-.11-1.042 7.379 7.379 0 0 0-.229-.938 5.917 5.917 0 0 0-.337-.83 5.175 5.175 0 0 0-.458-.737v-.013a3.202 3.202 0 0 0-.532-.548 3.368 3.368 0 0 0-.674-.416 4.07 4.07 0 0 0-.828-.272 5.855 5.855 0 0 0-.937-.117h-.298c-.105 0-.209-.009-.312-.028a.96.96 0 0 1-.275-.091.741.741 0 0 1-.415-.644.772.772 0 0 1 .328-.69.929.929 0 0 1 .284-.139c.107-.031.217-.05.328-.055h.034c.337.002.672-.031 1.002-.099a3.55 3.55 0 0 0 .857-.29c.242-.116.466-.267.665-.448.169-.152.315-.33.431-.525l.03-.055c.125-.221.232-.452.321-.69.086-.22.155-.447.206-.679a5.18 5.18 0 0 0 .101-.69c.015-.23.015-.46 0-.69a6.119 6.119 0 0 0-.099-.853 5.076 5.076 0 0 0-.213-.775 4.486 4.486 0 0 0-.318-.69 4.768 4.768 0 0 0-.386-.566l-.045-.053a3.127 3.127 0 0 0-.514-.49 2.879 2.879 0 0 0-.596-.345 3.228 3.228 0 0 0-.688-.212 4.994 4.994 0 0 0-1.902.048 3.757 3.757 0 0 0-.938.35 3.126 3.126 0 0 0-.736.552 2.94 2.94 0 0 0-.502.69l-.025.049a7.12 7.12 0 0 0-.374.899 7.218 7.218 0 0 0-.357 1.932c-.02.353-.02.706 0 1.058 0 .046.013.17.023.283v.049c0 .098.016.181.018.195a.809.809 0 0 1-.037.28.704.704 0 0 1-.376.429.792.792 0 0 1-.284.075h-.055a.727.727 0 0 1-.617-.33.945.945 0 0 1-.116-.23 1.46 1.46 0 0 1-.067-.26c-.034-.166-.078-.353-.126-.557a18.262 18.262 0 0 0-.144-.575 20.658 20.658 0 0 0-.328-1.125l-.016-.053c-.078-.246-.142-.46-.197-.617-.055-.156-.117-.35-.161-.476a7.77 7.77 0 0 0-.135-.372c-.046-.115-.074-.194-.101-.253l-.016-.04V5.99a.642.642 0 0 1 .023-.428c.058-.147.142-.282.247-.4.087-.1.179-.195.276-.285a7.574 7.574 0 0 1 .866-.72c.177-.124.369-.246.585-.373.215-.126.435-.246.671-.366.236-.12.491-.241.757-.358a8.497 8.497 0 0 1 2.498-.692 7.16 7.16 0 0 1 .828-.05c.54 0 1.08.03 1.616.09.501.057.998.147 1.488.27a9.73 9.73 0 0 1 1.375.46c.429.179.843.392 1.238.637a6.3 6.3 0 0 1 1.062.821 4.752 4.752 0 0 1 1.297 2.096c.121.407.191.828.211 1.253a5.145 5.145 0 0 1-.264 1.974 4.392 4.392 0 0 1-.999 1.61 5.65 5.65 0 0 1-1.199.936 8.06 8.06 0 0 1-.956.476l.076.028c.229.09.44.184.646.285.363.18.709.391 1.034.633.309.23.595.492.853.78l.059.066c.221.257.422.529.603.815a6.05 6.05 0 0 1 .807 1.997c.079.366.126.738.142 1.113a6.579 6.579 0 0 1-.098 1.54 6.09 6.09 0 0 1-.459 1.44 6.596 6.596 0 0 1-.798 1.319 8.265 8.265 0 0 1-1.146 1.198 8.57 8.57 0 0 1-1.398.985 8.987 8.987 0 0 1-1.593.704c-.576.19-1.168.33-1.768.418-.644.095-1.295.142-1.946.14-.521 0-1.041-.04-1.556-.119a8.783 8.783 0 0 1-1.454-.359 8.142 8.142 0 0 1-1.35-.6 8.484 8.484 0 0 1-1.071-.711l-.181-.15a8.345 8.345 0 0 1-1.038-1.007 6.47 6.47 0 0 1-.773-1.097 5.79 5.79 0 0 1-.499-1.194 5.652 5.652 0 0 1-.209-1.272 1.388 1.388 0 0 1 .021-.315.844.844 0 0 1 .105-.279l.122-.2.029.019a.746.746 0 0 1 .491-.173.915.915 0 0 1 .367.074.828.828 0 0 1 .293.23.91.91 0 0 1 .154.285c.034.11.053.223.057.338a4.088 4.088 0 0 0 .539 1.84c.174.298.38.576.614.829.227.243.474.469.736.674l.117.087c.322.242.662.458 1.018.646.346.183.706.337 1.077.46" fill="#242424"/><path d="M167.204 34.94h-4.809v.7h4.809v-.7Zm-120.144 0h-4.809v.699h4.81v-.7Zm7.004 2.044a1.316 1.316 0 0 0 1.834 0 1.517 1.517 0 0 0 0-1.958 1.315 1.315 0 0 0-1.834 0 1.516 1.516 0 0 0 0 1.958Zm2.425.55a2.174 2.174 0 0 1-3.012 0 2.261 2.261 0 0 1 0-3.055 2.167 2.167 0 0 1 3.012 0 2.26 2.26 0 0 1 0 3.055Zm1.53-2.123.075-1.512h3.065v4.214h-.816v-3.432h-1.5l-.04.782a7.844 7.844 0 0 1-.241 1.788c-.175.554-.47.906-.984.906-.062 0-.124-.007-.186-.018-.052 0-.112-.023-.176-.04l-.195-.05.09-.766.25.062.075.016c.014.002.03.002.044 0 .185 0 .302-.202.38-.506.096-.476.149-.96.158-1.444Zm5.043 1.573a1.314 1.314 0 0 0 1.834 0 1.51 1.51 0 0 0 0-1.958 1.313 1.313 0 0 0-1.834 0 1.51 1.51 0 0 0 0 1.958Zm2.425.55a2.174 2.174 0 0 1-3.012 0 2.254 2.254 0 0 1 0-3.055 2.167 2.167 0 0 1 3.012 0 2.261 2.261 0 0 1 0 3.055Zm.61-3.635h3.512v.782h-1.463v3.432h-.82v-3.432h-1.463V33.9h.234Zm4.452 3.085a1.314 1.314 0 0 0 1.833 0 1.51 1.51 0 0 0 0-1.958 1.313 1.313 0 0 0-1.834 0 1.51 1.51 0 0 0 0 1.958Zm2.425.55a2.174 2.174 0 0 1-3.012 0 2.254 2.254 0 0 1 0-3.055 2.167 2.167 0 0 1 3.012 0 2.26 2.26 0 0 1 0 3.055Zm4.099-1.859h1.205c.384.028.765-.078 1.08-.299a1.185 1.185 0 0 0 0-1.668 1.65 1.65 0 0 0-1.077-.301h-1.213l.005 2.268Zm-.594-3.057h1.8a2.487 2.487 0 0 1 1.632.504 1.934 1.934 0 0 1 .457 2.195 1.934 1.934 0 0 1-.457.646 2.515 2.515 0 0 1-1.633.503h-1.21v1.647h-.823v-5.495h.234Zm5.415 4.37a1.314 1.314 0 0 0 1.833 0 1.51 1.51 0 0 0 0-1.957 1.313 1.313 0 0 0-1.834 0 1.51 1.51 0 0 0 0 1.958Zm2.418.546a2.174 2.174 0 0 1-3.012 0 2.261 2.261 0 0 1 0-3.055 2.167 2.167 0 0 1 3.012 0 2.254 2.254 0 0 1 0 3.055Zm3.973.404a2.08 2.08 0 0 1-.917.203 2.123 2.123 0 0 1-1.653-.813 2.14 2.14 0 0 1 .741-3.246 2.124 2.124 0 0 1 1.84-.01c.278.131.515.336.688.59l.121.183-.628.46-.135-.187a1.048 1.048 0 0 0-.403-.345 1.372 1.372 0 0 0-1.504.253 1.512 1.512 0 0 0 0 1.96 1.283 1.283 0 0 0 .94.373c.194.003.387-.038.564-.12.16-.079.3-.198.403-.345l.135-.186.63.46-.126.184a1.717 1.717 0 0 1-.696.587Zm3.931 0a2.217 2.217 0 0 1-2.448-.402 2.137 2.137 0 0 1 1.522-3.667 2.1 2.1 0 0 1 .928.203c.279.13.516.335.688.59l.122.183-.629.46-.133-.187a1.055 1.055 0 0 0-.405-.345 1.37 1.37 0 0 0-1.502.253 1.505 1.505 0 0 0 0 1.96 1.275 1.275 0 0 0 .938.373 1.29 1.29 0 0 0 .564-.12c.162-.079.301-.197.405-.345l.133-.186.63.46-.123.184a1.751 1.751 0 0 1-.69.587Zm1.87.175h-.543V33.9h.816v2.8l2.332-2.8h.65v4.214h-.815v-2.8l-2.334 2.8h-.105Zm4.89 0h-.543V33.9h.816v2.8l2.334-2.8h.648v4.214h-.816v-2.8l-2.331 2.8h-.108Zm6.866-.952c.235.161.516.242.8.23.249.004.496-.045.724-.145a1.44 1.44 0 0 0 .408-.278l-1.313-1.38a2.947 2.947 0 0 0-.688.547.732.732 0 0 0-.122.798c.045.09.111.168.191.228Zm.516-3.68a.479.479 0 0 0-.154.374.658.658 0 0 0 .092.346c.093.152.202.294.325.423.222-.126.425-.28.606-.46a.537.537 0 0 0 .133-.56.43.43 0 0 0-.101-.151.642.642 0 0 0-.429-.124.71.71 0 0 0-.472.142v.01Zm2.418 3.422.775.822-.523.577-.729-.768a2.15 2.15 0 0 1-.637.42 2.569 2.569 0 0 1-1.034.205 2.156 2.156 0 0 1-1.318-.4 1.346 1.346 0 0 1-.545-1.09c-.003-.346.119-.68.343-.943.239-.273.52-.507.833-.69a2.53 2.53 0 0 1-.372-.52 1.367 1.367 0 0 1-.158-.66 1.192 1.192 0 0 1 .403-.92 1.53 1.53 0 0 1 1.016-.336c.344-.02.683.084.956.294a1.11 1.11 0 0 1 .376.872 1.19 1.19 0 0 1-.31.819 3.138 3.138 0 0 1-.706.575l1.064 1.13a3.564 3.564 0 0 0 .195-.667l.05-.254.732.23-.039.203a4.728 4.728 0 0 1-.188.671 3.576 3.576 0 0 1-.184.421v.01Zm6.112.361c.18-.055.35-.139.504-.248v-1.852h.809v2.213l-.071.067c-.25.236-.547.416-.871.529a3.18 3.18 0 0 1-1.08.184 2.89 2.89 0 0 1-2.038-.791 2.846 2.846 0 0 1 0-3.989 2.888 2.888 0 0 1 2.041-.789 3.07 3.07 0 0 1 1.102.193c.328.123.625.317.869.569l.151.156-.538.575-.165-.166c-.181-.18-.4-.32-.64-.407a2.237 2.237 0 0 0-.77-.122 2.072 2.072 0 0 0-1.467.566 2.03 2.03 0 0 0 0 2.841c.396.373.921.577 1.465.566a2.34 2.34 0 0 0 .699-.095Zm3.122-.28a1.317 1.317 0 0 0 1.834 0 1.517 1.517 0 0 0 0-1.958 1.316 1.316 0 0 0-1.834 0 1.517 1.517 0 0 0 0 1.958Zm2.425.55a2.173 2.173 0 0 1-3.012 0 2.259 2.259 0 0 1 0-3.055 2.167 2.167 0 0 1 3.012 0 2.26 2.26 0 0 1 0 3.055Zm1.834.58h-.591v-5.8h.816v5.8h-.225Zm2.063-1.13a1.317 1.317 0 0 0 1.834 0 1.517 1.517 0 0 0 0-1.958 1.314 1.314 0 0 0-1.834 0 1.516 1.516 0 0 0 0 1.958Zm2.196-2.64v-2.03h.816v5.8h-.809v-.447a1.68 1.68 0 0 1-.275.203 2.01 2.01 0 0 1-1.029.273 2.043 2.043 0 0 1-1.492-.612 2.275 2.275 0 0 1-.586-1.526c0-.564.208-1.108.586-1.526a2.053 2.053 0 0 1 1.494-.61c.357-.003.707.09 1.016.27.097.059.188.127.273.204h.006Zm4.489 2.64a1.312 1.312 0 0 0 1.834 0 1.511 1.511 0 0 0 0-1.958 1.315 1.315 0 0 0-1.834 0 1.511 1.511 0 0 0 0 1.958Zm2.425.55a2.173 2.173 0 0 1-3.012 0 2.255 2.255 0 0 1 0-3.055 2.167 2.167 0 0 1 3.012 0 2.26 2.26 0 0 1 0 3.055Zm2.845-4.44a.746.746 0 0 0-.243-.039.456.456 0 0 0-.358.117.589.589 0 0 0-.116.41v.317h1.198v.768h-1.192v3.45h-.832v-3.45h-.687V33.9h.687v-.347a1.197 1.197 0 0 1 .348-.923 1.18 1.18 0 0 1 .922-.342c.167 0 .332.025.491.076.148.047.285.125.401.23l.131.12-.363.69-.229-.198a.583.583 0 0 0-.165-.11h.007Zm3.535.313v2.275h1.206a1.65 1.65 0 0 0 1.075-.301 1.184 1.184 0 0 0 0-1.673 1.656 1.656 0 0 0-1.078-.301h-1.203Zm2.412 2.825 1.338 1.881h-.976l-1.204-1.67-.114.012h-1.472v1.647h-.823v-5.484h2.029a2.49 2.49 0 0 1 1.641.506 1.786 1.786 0 0 1 .619 1.424c.011.406-.112.805-.351 1.134-.181.24-.42.429-.694.55h.007Zm4.733-.104V33.9h.816v4.214h-.802v-.37a1.497 1.497 0 0 1-.211.15 1.912 1.912 0 0 1-.974.25 1.78 1.78 0 0 1-1.316-.487 1.831 1.831 0 0 1-.474-1.335V33.9h.816v2.395c-.022.29.069.578.254.803a.991.991 0 0 0 .75.262 1.106 1.106 0 0 0 .839-.325c.209-.253.314-.577.295-.906h.007Zm4.264 1.698a2.108 2.108 0 0 1-1.21.315 3.03 3.03 0 0 1-.917-.143 1.98 1.98 0 0 1-.736-.4l-.131-.124.392-.69.207.177c.159.13.342.228.538.29.214.071.438.108.663.108.243.017.486-.031.704-.14a.372.372 0 0 0 .171-.334c0-.317-.44-.4-.916-.488-.752-.142-1.566-.294-1.566-1.276a1.133 1.133 0 0 1 .484-.939 1.958 1.958 0 0 1 1.164-.32c.262.001.523.038.775.11.232.062.451.165.646.304l.161.122-.392.69-.207-.149a1.424 1.424 0 0 0-.444-.216 1.888 1.888 0 0 0-.546-.078 1.19 1.19 0 0 0-.649.144.384.384 0 0 0-.176.332c0 .342.458.43.942.522.747.142 1.538.292 1.538 1.24a1.102 1.102 0 0 1-.502.943h.007Zm3.439 0a2.105 2.105 0 0 1-1.211.315c-.311 0-.62-.048-.917-.143a1.954 1.954 0 0 1-.733-.4l-.133-.124.392-.69.208.177c.16.13.343.229.539.29.213.071.436.108.66.108.243.017.486-.031.704-.14a.367.367 0 0 0 .172-.334c0-.317-.44-.4-.917-.488-.754-.142-1.568-.294-1.568-1.276a1.136 1.136 0 0 1 .484-.938 1.962 1.962 0 0 1 1.164-.32c.263 0 .525.038.777.11.225.063.437.165.626.301l.161.122-.392.69-.204-.15a1.484 1.484 0 0 0-.445-.216 1.912 1.912 0 0 0-.548-.078 1.19 1.19 0 0 0-.649.145.386.386 0 0 0-.176.331c0 .343.458.43.944.523.745.142 1.536.292 1.536 1.24a1.11 1.11 0 0 1-.493.945h.019Zm1.63.287h-.587V33.9h.809v4.214h-.222Zm.19-4.83a.516.516 0 0 1-.736.004.52.52 0 0 1-.114-.569.523.523 0 0 1 .848-.174.528.528 0 0 1 .114.57.54.54 0 0 1-.114.169h.002Zm1.758 3.935c.186.121.405.178.626.164.235.007.467-.054.667-.177.174-.118.309-.286.387-.481v-.43h-1.047a1.105 1.105 0 0 0-.649.147.444.444 0 0 0-.17.377.477.477 0 0 0 .168.407l.018-.007Zm-.069-3.202a2.68 2.68 0 0 1 .897-.154 1.693 1.693 0 0 1 1.231.426 1.615 1.615 0 0 1 .437 1.208v2.61h-.8v-.299a1.843 1.843 0 0 1-1.121.33 1.783 1.783 0 0 1-1.123-.341 1.187 1.187 0 0 1-.458-.962 1.143 1.143 0 0 1 .458-.966 1.925 1.925 0 0 1 1.172-.315h1.054v-.071a.848.848 0 0 0-.211-.635.936.936 0 0 0-.671-.21 1.82 1.82 0 0 0-.624.111 1.547 1.547 0 0 0-.513.306l-.193.175-.442-.64.151-.135c.217-.189.467-.335.738-.43l.018-.008Zm-106.251.948a1.279 1.279 0 0 1-.253.246c.15.083.284.19.4.316.228.257.353.592.348.938a1.488 1.488 0 0 1-.626 1.215 2.546 2.546 0 0 1-1.518.46 3.074 3.074 0 0 1-1.073-.196 2.768 2.768 0 0 1-.903-.55l-.135-.124.387-.667.209.198c.192.178.417.317.662.407.259.098.533.148.81.147.358.012.712-.088 1.01-.287a.788.788 0 0 0 .347-.649.649.649 0 0 0-.275-.557 1.6 1.6 0 0 0-.917-.23H49.14v-.775h1.245c.268.018.534-.053.759-.2a.607.607 0 0 0 .229-.506.706.706 0 0 0-.3-.566 1.49 1.49 0 0 0-.888-.25 2.438 2.438 0 0 0-1.323.4l-.229.15-.311-.73.17-.106a3.217 3.217 0 0 1 1.703-.494 2.362 2.362 0 0 1 1.423.427 1.397 1.397 0 0 1 .585 1.15c.004.301-.093.595-.276.833Z" fill="#2B2A29"/></svg>