<svg width="20" height="20" fill="none" xmlns="http://www.w3.org/2000/svg"><path d="M9.167 9.917v4.25a.833.833 0 0 0 1.666 0v-4.25a4.167 4.167 0 1 0-1.666 0ZM10 3.333a2.5 2.5 0 1 1 0 5 2.5 2.5 0 0 1 0-5Zm3.508 8.684a.852.852 0 1 0-.35 1.666c1.892.375 2.675 1.05 2.675 1.317 0 .483-2.041 1.667-5.833 1.667-3.792 0-5.833-1.184-5.833-1.667 0-.267.783-.942 2.675-1.35a.853.853 0 0 0-.35-1.667C3.958 12.567 2.5 13.658 2.5 15c0 2.192 3.775 3.333 7.5 3.333s7.5-1.141 7.5-3.333c0-1.342-1.458-2.433-3.992-2.983Z" fill="#242424"/></svg>