<svg width="48" height="48" fill="none" xmlns="http://www.w3.org/2000/svg"><path fill-rule="evenodd" clip-rule="evenodd" d="M35.999 19.117c0-4.573-2.968-5.535-5.469-5.535-2.326 0-4.953 2.623-5.764 3.63-.376.472-1.156.472-1.532 0-.812-1.01-3.438-3.63-5.766-3.63-2.5 0-5.469.962-5.469 5.535 0 2.979 2.89 5.745 2.922 5.778L24 34.009l9.062-9.097c.046-.05 2.937-2.816 2.937-5.795Zm2.001 0c0 3.907-3.438 7.178-3.579 7.325l-9.733 9.765a.953.953 0 0 1-1.376 0l-9.75-9.798C13.438 26.296 10 23.024 10 19.117c0-4.768 2.796-7.617 7.468-7.617 2.735 0 5.299 2.246 6.532 3.516 1.233-1.27 3.797-3.516 6.53-3.516 4.672 0 7.468 2.847 7.468 7.617H38Z" fill="#242424"/><circle cx="35" cy="15" r="8" fill="#242424"/><path d="M32.812 11v7h-.72v-6.36h-1.65V11h2.37Zm6.453 6.36V18h-4.91v-.51l2.91-2.85c.367-.36.613-.67.74-.93.133-.267.2-.533.2-.8 0-.413-.143-.733-.43-.96-.28-.233-.683-.35-1.21-.35-.82 0-1.457.26-1.91.78l-.51-.44c.273-.32.62-.567 1.04-.74.426-.173.907-.26 1.44-.26.713 0 1.276.17 1.69.51.42.333.63.793.63 1.38 0 .36-.08.707-.24 1.04-.16.333-.463.717-.91 1.15l-2.38 2.34h3.85Z" fill="#fff"/></svg>