<svg width="32" height="33" fill="none" xmlns="http://www.w3.org/2000/svg"><path d="M0 16.33c0-8.836 7.163-16 16-16s16 7.164 16 16c0 8.837-7.163 16-16 16s-16-7.163-16-16Z" fill="#F68634"/><path d="m17.73 19.957 2.392 2.309a1.18 1.18 0 0 1 0 1.71 1.284 1.284 0 0 1-1.771 0L16 21.708l-2.35 2.268a1.275 1.275 0 0 1-.886.354c-.32 0-.64-.118-.886-.354a1.18 1.18 0 0 1 0-1.71l2.391-2.309a8.186 8.186 0 0 1-2.484-.992 1.185 1.185 0 0 1-.392-1.668 1.278 1.278 0 0 1 1.728-.38 5.597 5.597 0 0 0 5.758 0 1.279 1.279 0 0 1 1.728.38 1.186 1.186 0 0 1-.392 1.668 8.173 8.173 0 0 1-2.484.992Z" fill="#fff"/><path fill-rule="evenodd" clip-rule="evenodd" d="M11.712 12.46c0 2.276 1.918 4.127 4.277 4.127 2.36 0 4.277-1.851 4.277-4.127 0-2.277-1.917-4.13-4.277-4.13-2.359 0-4.277 1.853-4.277 4.13Zm6.048 0c0-.943-.794-1.71-1.77-1.71-.977 0-1.772.767-1.772 1.71 0 .942.795 1.709 1.771 1.709.977 0 1.771-.767 1.771-1.71Z" fill="#fff"/></svg>