<svg width="23" height="22" fill="none" xmlns="http://www.w3.org/2000/svg"><g clip-path="url(#a)" fill="#242424"><path fill-rule="evenodd" clip-rule="evenodd" d="M19.075 4.583H16.17L14.492 2.75h-5.5L7.314 4.583H4.41a1.839 1.839 0 0 0-1.834 1.834v11c0 1.008.825 1.833 1.834 1.833h7.274a6.416 6.416 0 0 1-.71-1.833H4.409v-11H8.12l1.678-1.834h3.886l1.678 1.834h3.712V9.89a6.417 6.417 0 0 1 1.834.884V6.417a1.839 1.839 0 0 0-1.834-1.834Zm-4.169 5.48a3.666 3.666 0 1 0-4.056 5.411 6.368 6.368 0 0 1 .42-1.785 1.833 1.833 0 1 1 2.042-2.72 6.416 6.416 0 0 1 1.595-.906"/><path fill-rule="evenodd" clip-rule="evenodd" d="M14.325 18.959a4.125 4.125 0 1 0 5.834-5.834 4.125 4.125 0 0 0-5.834 5.834Zm1.296-1.297a2.292 2.292 0 1 0 3.242-3.24 2.292 2.292 0 0 0-3.242 3.24Z"/><path d="m20.159 17.662 2.268 2.27-1.296 1.295-2.269-2.268 1.297-1.297Z"/></g><defs><clipPath id="a"><path fill="#fff" transform="translate(.742)" d="M0 0h22v22H0z"/></clipPath></defs></svg>