<svg width="99" height="97" fill="none" xmlns="http://www.w3.org/2000/svg"><g clip-path="url(#a)" stroke="#515151" stroke-width="3" stroke-miterlimit="10"><path d="M89.133 46.034H9.866a.638.638 0 0 0-.637.64V94.85c0 .353.285.64.637.64h79.267a.638.638 0 0 0 .638-.64V46.673a.638.638 0 0 0-.638-.639ZM43.409 23.83v22.204H4.06c-.855 0-1.674-.34-2.279-.946a3.234 3.234 0 0 1-.943-2.283V27.06c0-.857.34-1.678.943-2.284a3.218 3.218 0 0 1 2.279-.946h39.348Zm54.751 3.23v15.745c0 .856-.339 1.678-.943 2.283a3.218 3.218 0 0 1-2.278.946H56.16V23.83h38.78c.854 0 1.674.34 2.278.946.604.606.944 1.427.944 2.284Z"/><path d="M56.162 23.83H43.409v22.204h12.753V23.83Zm0 22.205H43.409V95.49h12.753V46.035ZM30.204 24.05c-5.856-5.905-5.672-14.938-1.124-19.514C34.114-.51 44.634-.124 50.12 7.564m.001 0C55.591-.124 66.08-.561 71.146 4.536c4.547 4.575 4.749 13.608-1.107 19.513M50.121 7.563V23.83"/></g><defs><clipPath id="a"><path fill="#fff" transform="translate(0 .33)" d="M0 0h99v96H0z"/></clipPath></defs></svg>