<svg width="48" height="48" fill="none" xmlns="http://www.w3.org/2000/svg"><g clip-path="url(#a)" fill="#242424"><path d="M37 40.706H11V16.421h26v24.285Zm-24.375-1.619h22.75V18.04h-22.75v21.047Z"/><path d="M32.576 18.04H15.425l-.142-.633a7.859 7.859 0 0 1-.218-1.764c0-4.641 4.008-8.419 8.935-8.419 4.928 0 8.937 3.778 8.937 8.42a7.82 7.82 0 0 1-.218 1.763l-.143.633ZM16.75 16.42h14.505c.04-.276.06-.53.06-.777-.002-3.75-3.284-6.8-7.314-6.8s-7.308 3.05-7.308 6.8c-.002.246.015.5.057.778Z"/></g><circle cx="35" cy="15" r="8" fill="#242424"/><path d="M32.812 11v7h-.72v-6.36h-1.65V11h2.37Zm6.453 6.36V18h-4.91v-.51l2.91-2.85c.367-.36.613-.67.74-.93.133-.267.2-.533.2-.8 0-.413-.143-.733-.43-.96-.28-.233-.683-.35-1.21-.35-.82 0-1.457.26-1.91.78l-.51-.44c.273-.32.62-.567 1.04-.74.426-.173.907-.26 1.44-.26.713 0 1.276.17 1.69.51.42.333.63.793.63 1.38 0 .36-.08.707-.24 1.04-.16.333-.463.717-.91 1.15l-2.38 2.34h3.85Z" fill="#fff"/><defs><clipPath id="a"><path fill="#fff" transform="translate(11 7.224)" d="M0 0h26v34H0z"/></clipPath></defs></svg>