<svg width="38" height="34" fill="none" xmlns="http://www.w3.org/2000/svg"><path d="M34.146 17.484a.447.447 0 0 0 .075-.14c.005-.015.014-.027.018-.043.002-.01 0-.02.001-.03a.497.497 0 0 0 .005-.08.47.47 0 0 0-.006-.082c-.001-.01 0-.02-.002-.029-.004-.015-.013-.027-.018-.041a.49.49 0 0 0-.034-.08.498.498 0 0 0-.16-.166c-.015-.008-.026-.021-.041-.029L14.027 6.955a.477.477 0 0 0-.648.624l4.282 9.625-3.951 9.96a.479.479 0 0 0 .106.515l.018.017a.479.479 0 0 0 .54.07l19.619-10.148c.014-.007.023-.019.036-.027a.456.456 0 0 0 .117-.107ZM14.79 8.395l16.926 8.32H18.49l-3.701-8.32Zm.28 17.933 3.435-8.657h13.302L15.07 26.328Z" fill="#242424"/><path d="M13.955 17.191a.478.478 0 0 0-.478-.478h-9.47a.478.478 0 1 0 0 .957h9.47a.478.478 0 0 0 .478-.479Zm-1.491 3.244H7.727a.478.478 0 1 0 0 .957h4.737a.478.478 0 1 0 0-.957ZM7.39 13.81c.086.087.205.14.337.14h4.736a.478.478 0 1 0 0-.956H7.728a.478.478 0 0 0-.338.816Z" fill="#242424"/></svg>