<svg width="25" height="26" fill="none" xmlns="http://www.w3.org/2000/svg"><path fill-rule="evenodd" clip-rule="evenodd" d="M16.415 19.035a7.202 7.202 0 0 1-5.38 1.235c-1.878-.321-3.57-1.382-4.732-2.966a8.192 8.192 0 0 1-1.531-5.57c.179-1.993 1.07-3.84 2.495-5.167C8.69 5.239 10.54 4.53 12.443 4.586c1.901.054 3.712.868 5.065 2.275 1.354 1.407 2.149 3.302 2.224 5.303a8.155 8.155 0 0 1-1.817 5.473l3.317 3.491-1.414 1.489-3.403-3.582Zm1.327-6.561c0 1.535-.58 3.008-1.61 4.093-1.032 1.086-2.431 1.696-3.89 1.696-1.458 0-2.857-.61-3.889-1.696a5.948 5.948 0 0 1-1.61-4.093c0-1.536.579-3.008 1.61-4.094 1.032-1.086 2.43-1.696 3.89-1.696 1.458 0 2.857.61 3.888 1.696a5.947 5.947 0 0 1 1.611 4.094Z" fill="#242424"/></svg>