<svg width="14" height="14" fill="none" xmlns="http://www.w3.org/2000/svg"><g clip-path="url(#a)"><path d="M6.033 7.968A10.687 10.687 0 0 1 3.8 4.746a.633.633 0 0 1 .14-.7l.693-.692c.568-.567.568-1.37.072-1.866L3.713.495a1.692 1.692 0 0 0-2.392 0l-.552.552C.143 1.674-.119 2.578.05 3.475c.418 2.21 1.702 4.63 3.774 6.701 2.072 2.072 4.492 3.356 6.702 3.774.897.169 1.801-.093 2.428-.72l.55-.55a1.69 1.69 0 0 0 0-2.392l-.992-.992a1.268 1.268 0 0 0-1.794 0l-.764.764a.633.633 0 0 1-.7.14 10.709 10.709 0 0 1-3.221-2.232Z" fill="#000"/></g><defs><clipPath id="a"><path fill="#fff" d="M0 0h14v14H0z"/></clipPath></defs></svg>