<svg width="32" height="33" fill="none" xmlns="http://www.w3.org/2000/svg"><circle cx="16" cy="16.331" r="16" fill="#2FC6F6"/><circle cx="16" cy="16.331" r="16" fill="url(#a)"/><path fill-rule="evenodd" clip-rule="evenodd" d="m6.978 17.316 3.504 1.141c.059.01.12.007.177-.01l.002-.002c.808-.51 8.018-5.063 8.434-5.216.066-.02.114.003.102.048-.168.585-6.44 6.161-6.44 6.161s-.026.03-.04.065l-.008-.004-.326 3.475s-.137 1.065.927 0a30.09 30.09 0 0 1 1.842-1.686c1.205.832 2.502 1.752 3.06 2.233a.973.973 0 0 0 .71.274c.531-.02.68-.603.68-.603s2.477-9.97 2.56-11.306l.01-.134a2.4 2.4 0 0 0 .01-.17 1.118 1.118 0 0 0-.03-.31.33.33 0 0 0-.226-.245c-.226-.086-.61.043-.61.043S7.72 15.956 6.945 16.497c-.168.116-.224.184-.251.264-.135.385.284.555.284.555Z" fill="#fff"/><defs><linearGradient id="a" x1="16" y1="32.331" x2="16" y2=".331" gradientUnits="userSpaceOnUse"><stop stop-color="#1D93D2"/><stop offset="1" stop-color="#38B0E3"/></linearGradient></defs></svg>