<svg width="13.000000" height="12.000000" viewBox="0 0 13 12" fill="none" xmlns="http://www.w3.org/2000/svg" xmlns:xlink="http://www.w3.org/1999/xlink">
	<desc>
			Created with Pixso.
	</desc>
	<defs/>
	<path id="Star 5" d="M5.97 -0.86L4.53 3.6C4.5 3.68 4.43 3.74 4.34 3.74L-0.35 3.73C-0.55 3.73 -0.63 3.98 -0.47 4.09L3.33 6.84C3.4 6.89 3.43 6.98 3.41 7.07L1.95 11.52C1.89 11.71 2.1 11.86 2.25 11.75L6.04 8.98C6.11 8.93 6.21 8.93 6.28 8.98L10.07 11.75C10.23 11.86 10.44 11.71 10.38 11.52L8.92 7.07C8.89 6.98 8.92 6.89 8.99 6.84L12.79 4.09C12.95 3.98 12.87 3.73 12.67 3.73L7.98 3.74C7.9 3.74 7.82 3.68 7.79 3.6L6.35 -0.86C6.29 -1.05 6.03 -1.05 5.97 -0.86Z" fill="#D4D4D4" fill-opacity="1.000000" fill-rule="evenodd"/>
</svg>
