<svg width="85" height="99" fill="none" xmlns="http://www.w3.org/2000/svg"><g clip-path="url(#a)" stroke="#515151" stroke-width="3"><path d="M26.127 85.249c6.21-4.596 13.207-11.2 12.283-18.007-.65-4.732-4.859-7.676-6.261-8.782-7.203-5.566-14.44-19.641-14.85-56.778H67.63c-.427 37.137-7.664 51.212-14.85 56.778-1.402 1.106-5.628 4.05-6.26 8.782-.925 6.808 6.072 13.411 12.283 18.007" stroke-miterlimit="10"/><path d="m67.375 10.94 16.218-.22c.12 2.722.804 23.367-14.148 34.38a32.57 32.57 0 0 1-9.957 4.986m-33.994 0a32.575 32.575 0 0 1-9.956-4.902C.585 34.172 1.27 13.527 1.389 10.804l16.184.136M64.228 85.3H20.773v12.68h43.455V85.3Z" stroke-miterlimit="10"/><path d="m40.166 20.473 2.697-4.71 2.697 4.71c.29.507.786.863 1.359.977l5.342 1.061-3.67 3.929a2.019 2.019 0 0 0-.53 1.613l.626 5.328-4.995-2.25a2.018 2.018 0 0 0-1.658 0l-4.995 2.25.625-5.328c.07-.59-.124-1.18-.53-1.613l-3.669-3.929 5.342-1.06a2.019 2.019 0 0 0 1.359-.978Z"/></g><defs><clipPath id="a"><path fill="#fff" transform="translate(.5 .83)" d="M0 0h84v98H0z"/></clipPath></defs></svg>