<svg width="129" height="87" fill="none" xmlns="http://www.w3.org/2000/svg"><g clip-path="url(#a)" stroke="#515151" stroke-width="3" stroke-miterlimit="10"><path d="M65.922 6.2c-6.114-4.35-11.081-5.173-14.555-5.063-7.78.238-11.569 5.205-20.025 4.952a23.462 23.462 0 0 1-10.469-2.943L1.068 30.88l21.896 19.19m11.516-1.035-.534-.537a5.601 5.601 0 0 0-7.958 0l-4.702 4.732a5.69 5.69 0 0 0 0 8.01l.534.536a5.602 5.602 0 0 0 7.958 0l4.701-4.732a5.69 5.69 0 0 0 0-8.01ZM70.323 71.38l8.708 8.75a5.58 5.58 0 0 0 7.953 0l.535-.523a5.714 5.714 0 0 0 1.64-4.01 5.714 5.714 0 0 0-1.64-4.011M75.274 59.215l14.98 15.076a6.804 6.804 0 0 0 2.212 1.495 6.767 6.767 0 0 0 7.439-1.495 6.887 6.887 0 0 0 1.992-4.849 6.887 6.887 0 0 0-1.992-4.849l-15.718-15.82"/><path d="m82.521 47.16 19.743 19.87a6.755 6.755 0 0 0 9.635 0 6.87 6.87 0 0 0 1.996-4.857 7.731 7.731 0 0 0-1.996-4.841c-2.877-3.576-15.718-16.612-33.653-33.888a4.609 4.609 0 0 0-4.715-.744L58.064 38.269c-.55.538-2.688 2.468-4.81 1.993-2.72-.585-5.061-4.999-3.788-10.647a40.555 40.555 0 0 1 4.102-10.125A32.827 32.827 0 0 1 66.552 5.994a25.254 25.254 0 0 1 14.68-3.48c8.488.87 11.003 6.502 19.177 6.644 3.398.01 6.746-.827 9.745-2.436 5.931 9.914 11.867 19.828 17.809 29.742L107.325 51.97m-57.58.808-1.534-1.544a5.602 5.602 0 0 0-7.958 0l-10.48 10.549a5.69 5.69 0 0 0 0 8.01l1.533 1.543a5.601 5.601 0 0 0 7.958 0l10.481-10.549a5.69 5.69 0 0 0 0-8.01Zm11.263 7.808-1.534-1.544a5.601 5.601 0 0 0-7.958 0l-9.78 9.844a5.69 5.69 0 0 0 0 8.01l1.533 1.544a5.601 5.601 0 0 0 7.958 0l9.78-9.845a5.69 5.69 0 0 0 0-8.01Z"/><path d="M61.836 67.584a6.305 6.305 0 0 1 1.928 1.825 6.35 6.35 0 0 1 1.01 2.462c.284 2.768-2.325 4.018-1.995 6.866.33 2.848 2.813 3.338 2.42 4.746-.518 1.804-5.203 2.705-8.912 1.471a11.72 11.72 0 0 1-6.397-5.695m15.31 4.255c2.413.75 4.983.82 7.434.206a13.667 13.667 0 0 0 6.177-3.48"/></g><defs><clipPath id="a"><path fill="#fff" transform="translate(0 .33)" d="M0 0h129v86H0z"/></clipPath></defs></svg>