<svg width="131" height="115" fill="none" xmlns="http://www.w3.org/2000/svg"><g clip-path="url(#a)" stroke="#515151" stroke-miterlimit="10"><path d="M58.86 39.421a34.08 34.08 0 0 1 17.08 15.467 34.426 34.426 0 0 1 3.41 22.872 34.268 34.268 0 0 1-11.82 19.833 33.861 33.861 0 0 1-21.651 7.737 33.862 33.862 0 0 1-21.597-7.89 34.272 34.272 0 0 1-11.68-19.917 34.425 34.425 0 0 1 3.57-22.847 34.075 34.075 0 0 1 17.19-15.345" stroke-width="3"/><path d="M34.428 32.732 31 28.152l7.959-8.821h15.693c2.46 3.052 4.904 5.967 7.348 8.944L46.306 48.33l-11.878-15.6Z" stroke-width="3"/><path d="m46 19.33-6 9.092 2.304 14.909M46 19.33l6 9.097-1.995 14.904M31 28.33h31" stroke-width="3"/><path d="M84 46.928c-.482 2.696-1.878 5.125-3.935 6.848a10.842 10.842 0 0 1-7.285 2.55c-2.643-.077-5.173-1.131-7.134-2.972-1.96-1.84-3.221-4.346-3.556-7.066a11.835 11.835 0 0 1 1.728-7.766c1.451-2.293 3.645-3.972 6.185-4.736a10.73 10.73 0 0 1 7.669.57c2.409 1.131 4.348 3.118 5.469 5.602"/><path d="m74 44.844 2.983-19.66L109.686 1.33 126 24.37 93.49 48.33 74 44.845Z" stroke-width="3"/><path d="M104 6.33a19602.51 19602.51 0 0 1 16 23" stroke-width="3"/><path d="M83 41.33c1.657 0 3-1.566 3-3.5 0-1.932-1.343-3.5-3-3.5s-3 1.568-3 3.5c0 1.934 1.343 3.5 3 3.5Z"/></g><defs><clipPath id="a"><path fill="#fff" transform="translate(0 .33)" d="M0 0h131v114H0z"/></clipPath></defs></svg>