<svg width="32" height="33" fill="none" xmlns="http://www.w3.org/2000/svg"><path d="M0 16.33c0-8.836 7.163-16 16-16s16 7.164 16 16c0 8.837-7.163 16-16 16s-16-7.163-16-16Z" fill="#4C6C91"/><path d="M16.837 21.581s.308-.033.466-.2c.144-.152.14-.44.14-.44s-.02-1.342.615-1.54c.626-.196 1.43 1.298 2.283 1.872.645.434 1.134.34 1.134.34l2.28-.032s1.192-.072.626-.992c-.046-.075-.33-.68-1.694-1.925-1.43-1.302-1.238-1.091.483-3.343 1.049-1.372 1.468-2.21 1.337-2.567-.125-.343-.896-.252-.896-.252l-2.566.015s-.19-.025-.331.058c-.138.081-.227.27-.227.27s-.406 1.061-.948 1.964c-1.143 1.905-1.6 2.005-1.786 1.887-.435-.276-.327-1.108-.327-1.698 0-1.846.286-2.616-.555-2.815-.278-.066-.484-.11-1.197-.117-.916-.009-1.69.003-2.13.214-.292.14-.517.453-.38.471.17.022.554.102.757.374.263.351.254 1.14.254 1.14s.151 2.172-.353 2.442c-.345.185-.82-.193-1.839-1.92-.522-.886-.916-1.864-.916-1.864s-.075-.183-.212-.281a1.059 1.059 0 0 0-.394-.156l-2.438.016s-.366.01-.5.166c-.12.139-.01.426-.01.426s1.91 4.385 4.071 6.595c1.983 2.025 4.233 1.892 4.233 1.892h1.02Z" fill="#fff"/></svg>