<svg width="16" height="16" viewBox="0 0 16 16" fill="none" xmlns="http://www.w3.org/2000/svg">
<path d="M1.33398 3.99667C1.33398 3.63 1.63132 3.33334 1.99732 3.33334H7.33732C7.51324 3.33334 7.68197 3.40322 7.80637 3.52762C7.93076 3.65202 8.00065 3.82074 8.00065 3.99667C8.00065 4.1726 7.93076 4.34132 7.80637 4.46572C7.68197 4.59012 7.51324 4.66 7.33732 4.66H1.99732C1.82139 4.66 1.65267 4.59012 1.52827 4.46572C1.40387 4.34132 1.33398 4.1726 1.33398 3.99667ZM1.33398 8C1.33398 7.63334 1.63132 7.33667 1.99732 7.33667H14.004C14.1799 7.33667 14.3486 7.40656 14.473 7.53095C14.5974 7.65535 14.6673 7.82408 14.6673 8C14.6673 8.17593 14.5974 8.34465 14.473 8.46905C14.3486 8.59345 14.1799 8.66334 14.004 8.66334H1.99732C1.82139 8.66334 1.65267 8.59345 1.52827 8.46905C1.40387 8.34465 1.33398 8.17593 1.33398 8ZM1.99732 11.34C1.82139 11.34 1.65267 11.4099 1.52827 11.5343C1.40387 11.6587 1.33398 11.8274 1.33398 12.0033C1.33398 12.1793 1.40387 12.348 1.52827 12.4724C1.65267 12.5968 1.82139 12.6667 1.99732 12.6667H10.004C10.1799 12.6667 10.3486 12.5968 10.473 12.4724C10.5974 12.348 10.6673 12.1793 10.6673 12.0033C10.6673 11.8274 10.5974 11.6587 10.473 11.5343C10.3486 11.4099 10.1799 11.34 10.004 11.34H1.99732Z" fill="white"/>
</svg>
