<svg width="168" height="41" viewBox="0 0 168 41" fill="none" xmlns="http://www.w3.org/2000/svg">
<path d="M25.9818 6.58336L20.7827 9.11366L27.9648 11.7314L25.9818 6.58336ZM32.1713 20.9347L29.2393 27.7803L34.4063 25.8113L32.1713 20.9347ZM29.0468 28.3991L26.9836 34.2648L34.3032 34.1061L34.5324 26.3105L29.0468 28.3991ZM26.2134 34.504L20.7231 32.2382L15.2971 34.734L20.9455 39.7601L26.2134 34.504ZM21.3535 31.9484L26.5137 34.0762L28.4141 28.6843L21.3535 31.9484ZM40.0594 20.171L34.8281 14.7516L32.4464 20.3137L34.8304 25.5169L40.0594 20.171ZM12.074 28.1921L9.0274 20.7944L6.39804 26.0091L6.43013 26.0206C8.3351 26.7337 10.2103 27.4583 12.074 28.1921ZM6.66854 34.274L14.387 34.3867L12.2986 28.7533L6.45076 26.5658L6.66854 34.274ZM12.858 28.9834C13.5457 30.7477 14.2334 32.5235 14.9051 34.3499L20.0813 31.9737L12.858 28.9834ZM34.4063 14.4273L28.884 12.5342L32.1575 19.6765L34.4063 14.4273ZM5.75158 14.9793L0.937584 20.5575L5.98082 25.671L8.7546 20.171L8.72939 20.1112L5.75158 14.9793ZM11.9112 12.548L6.18026 14.701L9.02281 19.573L11.9112 12.548ZM20.205 9.4311L12.4339 12.3455C11.4619 14.9011 10.4578 17.4061 9.32311 20.1664C10.4693 22.9751 11.5719 25.6871 12.6425 28.4037C15.3429 29.471 18.0181 30.5591 20.7094 31.6632L28.5791 28.0265L31.8893 20.2976L28.2513 12.3593L20.205 9.4311ZM14.9326 5.87028L20.2807 8.77552L25.6265 6.19462L20.0515 0.940809L14.9326 5.87028ZM19.7168 9.04925L14.646 6.28893C13.9789 8.18895 13.3325 9.96936 12.6746 11.7084L19.5288 9.13666L19.7168 9.04925ZM6.14129 6.0474L12.592 1.7022L12.7296 1.64239L20.354 0H20.5191L28.0129 1.59639L28.1367 1.64699L34.9771 5.84958L35.0964 5.96229L35.2935 6.24983L35.3118 6.26133L39.2616 12.012L39.3235 12.1569L40.9855 20.2723V20.4287L39.5184 27.8953L39.461 28.0357L35.3348 34.4373L35.2293 34.5477L28.8657 38.9642L28.7281 39.024L21.0395 40.7814H20.879L12.8557 39.2748L12.7113 39.2173L6.06335 34.8468L5.94873 34.734L1.73304 28.3577L1.67802 28.2243L0 20.7024V20.5414L1.49922 12.8815L1.56111 12.7343L6.03125 6.15551L6.14129 6.0474ZM19.1895 1.05812L13.2293 2.34627L14.5795 5.52064L19.1895 1.05812ZM27.5475 2.30027L20.6704 0.834998L26.1079 5.95999L26.1836 5.92089L27.5475 2.30027ZM34.2138 6.29813L34.1886 6.28203L26.4747 6.44075L28.5699 11.8694L28.5814 11.8924L34.4682 13.912L34.2138 6.29813ZM38.3584 12.0879L34.7387 6.82029L34.984 13.843L38.3584 12.0879ZM38.5739 12.4329V12.3892L38.5189 12.311L38.5739 12.4329ZM39.9906 19.3614L38.5968 12.5388L35.1422 14.3353L39.9906 19.3614ZM38.8444 27.2122L40.0937 20.8542L35.1651 25.8918L38.8444 27.2122ZM34.819 33.7656L38.716 27.7136L35.0276 26.3887L34.819 33.7656ZM28.8588 37.9935L33.7026 34.6305L27.0959 34.7731L28.8588 37.9935ZM21.5736 39.8337L28.4324 38.2672L26.5618 34.8445L21.5736 39.8337ZM13.3462 38.5594L20.2922 39.8636L14.9005 35.0653L13.3462 38.5594ZM7.38605 34.7869L12.8809 38.3915L14.4328 34.8974L7.38605 34.7869ZM2.41617 27.9091L2.42992 27.9805L6.14129 33.6115L5.93956 26.4807L2.47348 28.0403L2.41617 27.9091ZM0.930707 21.266L2.33364 27.5457L5.65072 26.0482L0.930707 21.266ZM2.19152 13.4497L0.949045 19.7823L5.33895 14.6872L2.19152 13.4497ZM5.74471 7.97963L2.35657 12.9666L5.53381 14.2157L5.74471 7.97963ZM6.7098 6.61327L6.64103 6.66158L6.27883 7.19294L6.04959 14.2111L12.1496 11.9108L14.1302 6.25443L6.7098 6.61327ZM12.7525 2.5441L7.51672 6.0658L14.1188 5.75297L12.7525 2.5441ZM24.3634 23.7273C24.4786 23.9247 24.5439 24.1474 24.5537 24.3759C24.5537 24.7877 24.2121 24.9947 23.5244 24.9947C23.38 24.9947 23.2952 25.0637 23.2952 25.1741C23.2952 25.2845 23.3708 25.3282 23.5244 25.3282C23.7949 25.3282 24.1411 25.3167 24.5652 25.2983C24.9892 25.2799 25.2918 25.2684 25.4982 25.2684C25.9047 25.2684 26.4449 25.2769 27.1189 25.2937C27.8066 25.3167 28.1917 25.3282 28.3109 25.3282C28.4301 25.3282 28.5401 25.2776 28.5401 25.1741C28.5401 25.0706 28.4393 24.9947 28.2444 24.9947C27.8627 24.9831 27.4931 24.8574 27.1831 24.6336C26.8193 24.3809 26.5302 24.0344 26.3463 23.6307L20.3036 11.1172L14.2196 23.6307C14.0254 24.0441 13.7197 24.3947 13.3371 24.6428C13.0066 24.8657 12.6189 24.988 12.2207 24.9947C12.0808 24.9947 12.0121 25.0637 12.0121 25.1741C12.0121 25.2845 12.0877 25.3282 12.2413 25.3282C12.537 25.3282 12.7777 25.3167 12.9588 25.2983C13.234 25.2742 13.5102 25.2643 13.7864 25.2684C14.183 25.2684 14.7836 25.3236 15.391 25.3236C15.5332 25.3236 15.6203 25.2776 15.6203 25.1741C15.6203 25.0706 15.5423 24.9947 15.391 24.9947C14.7148 24.9947 14.3732 24.7969 14.3732 24.3759C14.383 24.1474 14.4483 23.9247 14.5635 23.7273L15.8931 20.9485H23.0407L24.3634 23.7273ZM19.9941 14.6228L22.8757 20.6173H16.0673L19.5448 13.3899L19.9941 14.6228ZM28.0175 2.48889L26.7177 5.93929L33.3839 5.79207L28.0175 2.48889Z" fill="#242424"/>
<path d="M61.8106 23.9218C61.7886 23.8484 61.7626 23.7762 61.7326 23.7056C61.7005 23.6251 61.6616 23.5446 61.6203 23.4595L59.6901 19.4271H49.2139L47.2837 23.4618C47.2425 23.5469 47.2035 23.6297 47.1714 23.7079C47.1415 23.7793 47.1154 23.8522 47.0935 23.9264C47.0782 23.9794 47.066 24.0331 47.0568 24.0874C47.0539 24.1265 47.0539 24.1657 47.0568 24.2048V24.2347C47.0572 24.2879 47.0689 24.3405 47.0912 24.3888C47.114 24.4297 47.1472 24.4639 47.1875 24.4877C47.2849 24.5426 47.3912 24.58 47.5015 24.5981C47.6755 24.629 47.8521 24.6436 48.0288 24.6418H48.0975C48.2071 24.641 48.3162 24.6573 48.4208 24.6901C48.5219 24.7211 48.6167 24.7702 48.7004 24.835C48.7982 24.9097 48.8768 25.0067 48.9297 25.118C48.9785 25.2304 49.0027 25.3519 49.0007 25.4745V25.5182C48.996 25.6304 48.967 25.7403 48.9159 25.8402C48.8622 25.9465 48.7835 26.0381 48.6867 26.1071C48.6084 26.1601 48.5215 26.199 48.4299 26.2221H48.3222V26.2405H48.0471C47.552 26.2405 47.0224 26.2129 46.5502 26.1876C46.1995 26.1692 45.8808 26.1531 45.5897 26.1531H45.177H44.8538L44.5787 26.1669C44.4962 26.1669 44.4229 26.1784 44.3495 26.1876H44.3312C44.2555 26.1876 44.1799 26.2037 44.1019 26.2083L43.8222 26.2221C43.7214 26.2221 43.6136 26.2221 43.5013 26.2221C43.389 26.2221 43.2537 26.2221 43.1712 26.2221C43.0686 26.2229 42.9662 26.2113 42.8663 26.1876C42.7713 26.1652 42.6807 26.1271 42.5981 26.0749C42.4913 26.006 42.4037 25.911 42.3437 25.7988C42.2871 25.6853 42.2581 25.56 42.2588 25.4331C42.2575 25.316 42.2809 25.2 42.3276 25.0927C42.3741 24.9865 42.4439 24.8921 42.5316 24.8166L42.5981 24.7591C42.6561 24.7204 42.7184 24.6888 42.7838 24.6648C42.8816 24.6313 42.9833 24.6105 43.0864 24.6027H43.1231C43.242 24.6035 43.3608 24.5951 43.4784 24.5774C43.598 24.5588 43.716 24.5311 43.8314 24.4946C43.9582 24.4543 44.0822 24.4059 44.2028 24.3497C44.3299 24.2882 44.4531 24.2191 44.5719 24.1427C44.6964 24.0782 44.816 24.0044 44.9295 23.9218C45.0414 23.8268 45.1464 23.7238 45.2435 23.6136C45.3441 23.4973 45.4368 23.3743 45.5209 23.2455C45.5874 23.1443 45.6493 23.0385 45.7089 22.9281C49.0573 16.0411 52.4057 9.15411 55.7541 2.26711L65.5815 22.6199L65.6801 22.8246C65.7482 22.9693 65.8248 23.1099 65.9093 23.2455C65.9889 23.372 66.0761 23.4934 66.1707 23.609C66.2614 23.7183 66.3594 23.8213 66.4641 23.9172C66.5675 24.0113 66.6778 24.0975 66.7942 24.1749C66.9072 24.2522 67.0252 24.3222 67.1472 24.3842C67.2595 24.442 67.376 24.4912 67.4957 24.5314C67.6021 24.5697 67.7119 24.5982 67.8235 24.6165C67.9302 24.635 68.0384 24.6443 68.1467 24.6441C68.3669 24.6251 68.5874 24.6784 68.7748 24.7959C68.8932 24.8649 68.9913 24.9641 69.0591 25.0835C69.1199 25.1994 69.1528 25.3281 69.1552 25.4591C69.1576 25.5901 69.1294 25.7198 69.0728 25.8379C69.0148 25.9481 68.9306 26.0422 68.8275 26.1117C68.7471 26.1659 68.6579 26.2056 68.5639 26.229C68.4658 26.2544 68.3649 26.2667 68.2636 26.2658H68.0206L67.5759 26.2543L67.0303 26.2382L66.3839 26.2175L65.6365 26.2014L64.9695 26.1876H64.417H63.5895H63.2823L62.8994 26.2037L62.441 26.2221H62.4295L61.971 26.2405L61.5309 26.2543C61.3842 26.2543 61.2466 26.2543 61.1206 26.2543C60.9945 26.2543 60.8546 26.2543 60.7927 26.2543C60.6922 26.2554 60.592 26.243 60.4947 26.2175C60.3999 26.1945 60.3098 26.1548 60.2288 26.1002C60.1258 26.0307 60.0415 25.9366 59.9835 25.8264C59.9278 25.7144 59.8995 25.5906 59.901 25.4653C59.9 25.3455 59.925 25.227 59.9744 25.118C60.0237 25.0097 60.0975 24.9144 60.1898 24.8396C60.2685 24.7773 60.3568 24.7284 60.4512 24.6947C60.5508 24.6623 60.6539 24.6422 60.7584 24.6349H60.8684C61.0484 24.6344 61.2279 24.6175 61.4048 24.5843C61.5184 24.564 61.6278 24.5244 61.728 24.467C61.7667 24.4449 61.7991 24.4132 61.822 24.375C61.842 24.331 61.8514 24.2829 61.8495 24.2347V24.1357C61.8517 24.1166 61.8517 24.0974 61.8495 24.0782C61.8422 24.0238 61.8307 23.9699 61.8151 23.9172L61.8106 23.9218ZM58.8924 17.8008C57.4344 14.7553 55.683 11.6108 54.5002 8.46403L50.0094 17.8008H58.8924Z" fill="#242424"/>
<path d="M89.2052 23.8856C89.1826 23.8199 89.1566 23.7554 89.1272 23.6924C89.0997 23.6188 89.063 23.5429 89.024 23.4624L88.9988 23.4141L82.1882 9.45604V9.43303L81.9131 8.74295L74.6738 23.4647C74.6302 23.559 74.5935 23.6441 74.566 23.7177C74.5368 23.7888 74.5123 23.8618 74.4927 23.9362C74.4766 23.9905 74.4643 24.0458 74.456 24.1018C74.4519 24.1431 74.4519 24.1848 74.456 24.2261V24.256C74.4541 24.3094 74.4659 24.3625 74.4904 24.4101C74.513 24.4498 74.5453 24.483 74.5843 24.5067C74.682 24.5617 74.7881 24.5998 74.8984 24.6194C75.0725 24.6493 75.249 24.6632 75.4257 24.6608H75.4944C75.6038 24.6601 75.7127 24.6756 75.8176 24.7068C75.9193 24.7389 76.0141 24.7896 76.0973 24.8563C76.1959 24.9301 76.2747 25.0274 76.3266 25.1393C76.3761 25.2499 76.4011 25.3699 76.3999 25.4912V25.528C76.3962 25.6394 76.368 25.7486 76.3174 25.8477C76.2638 25.9535 76.185 26.0443 76.0881 26.1123C76.0098 26.1677 75.922 26.2082 75.8291 26.2319L75.7512 26.2503V26.2687H75.4417C74.942 26.2687 74.401 26.2388 73.9219 26.2158L73.4129 26.1905C73.2662 26.1905 73.1241 26.1905 72.9774 26.1905H72.5739C72.457 26.1905 72.3447 26.1905 72.253 26.1905L71.9779 26.2043L71.7487 26.2227H71.7303L71.5011 26.2434L71.2145 26.2572H70.8822H70.5429C70.4359 26.2583 70.3293 26.2436 70.2265 26.2135C70.1272 26.1836 70.034 26.1361 69.9514 26.0732C69.8536 26.0005 69.7749 25.905 69.7222 25.7948C69.6708 25.684 69.6449 25.5629 69.6466 25.4406C69.6452 25.325 69.6686 25.2105 69.7153 25.1048C69.7621 25.0001 69.8328 24.9079 69.9216 24.8356C69.9954 24.7735 70.0801 24.7258 70.1715 24.6953C70.2641 24.6636 70.3604 24.6443 70.4581 24.6378H70.4902C70.7706 24.631 71.0488 24.5869 71.3177 24.5067C71.5678 24.4319 71.8051 24.3194 72.0215 24.1731C72.2494 24.0167 72.4533 23.8276 72.6267 23.6119C72.8129 23.3814 72.9729 23.1306 73.1035 22.8643L83.1441 2.48853L92.9692 22.6136L93.0678 22.816C93.1364 22.9582 93.2129 23.0965 93.2971 23.23C93.3785 23.3556 93.4672 23.4762 93.563 23.5912C93.6551 23.7021 93.7547 23.8067 93.861 23.904C93.9684 24.0007 94.0817 24.0906 94.2003 24.1731L94.2369 24.1985C94.3447 24.2675 94.4524 24.3273 94.5579 24.3825C94.6695 24.4407 94.7852 24.4907 94.904 24.532C95.0064 24.5672 95.1114 24.5941 95.2181 24.6125C95.3171 24.6307 95.4176 24.6399 95.5184 24.6401C95.6331 24.6391 95.7477 24.6507 95.8599 24.6746C95.9638 24.6953 96.0636 24.7326 96.1557 24.785C96.2829 24.85 96.3893 24.9497 96.4628 25.0726C96.5277 25.1888 96.5631 25.3192 96.5659 25.4524C96.5687 25.5856 96.5388 25.7174 96.4789 25.8362C96.4197 25.9483 96.3329 26.0434 96.2267 26.1123C96.1448 26.1662 96.054 26.2051 95.9585 26.2273C95.8586 26.251 95.7563 26.2626 95.6536 26.2618H95.3762H95.0255L94.6518 26.2503L94.2392 26.2227H93.9275C93.4804 26.2089 93.0586 26.1974 92.685 26.1905C92.4557 26.1905 92.2403 26.179 91.9973 26.1767H91.0024H90.6998L90.317 26.1905L89.8585 26.2112L89.4 26.2319L88.9645 26.2457H88.5495H88.2103C88.1082 26.2468 88.0065 26.2344 87.9077 26.2089C87.8121 26.1834 87.7215 26.1422 87.6395 26.087C87.5373 26.0178 87.4544 25.9236 87.3988 25.8132C87.3425 25.7022 87.3142 25.579 87.3162 25.4544C87.3141 25.3345 87.3392 25.2158 87.3896 25.1071C87.4417 24.9966 87.5205 24.9009 87.6188 24.8287C87.6971 24.7665 87.7855 24.7182 87.8802 24.6861C87.9779 24.6528 88.0797 24.6327 88.1828 24.6263H88.2928C88.4697 24.6248 88.6461 24.6079 88.82 24.5757C88.9318 24.5551 89.0394 24.5163 89.1387 24.4607C89.1756 24.4379 89.2063 24.4063 89.2281 24.3687C89.2499 24.3244 89.2601 24.2754 89.2579 24.2261V24.1064V24.042C89.2493 23.9846 89.2371 23.9277 89.2212 23.8718" fill="#242424"/>
<path d="M100.987 3.53454C101.173 3.53454 101.352 3.52074 101.531 3.52074C101.778 3.52074 101.907 3.52074 102.035 3.52074H102.381L102.445 3.65646C103.289 5.46447 104.151 7.27478 105.015 9.08739C106.927 13.1014 108.852 17.1383 110.572 21.1868L119.546 3.61275H120.408H120.942L121.575 3.59895L122.293 3.57825L122.944 3.55985L123.482 3.54375H123.913H124.143C124.249 3.54365 124.355 3.55835 124.457 3.58745C124.556 3.61733 124.649 3.66486 124.732 3.72777C124.83 3.79994 124.909 3.89561 124.961 4.0061C125.012 4.11698 125.038 4.23806 125.037 4.36034C125.039 4.50086 125.001 4.63905 124.927 4.75829C124.85 4.87545 124.744 4.96998 124.619 5.03202C124.533 5.0741 124.441 5.10575 124.347 5.12633C124.243 5.14687 124.138 5.15918 124.033 5.16313H124.007C123.904 5.16308 123.8 5.17155 123.698 5.18844C123.603 5.20483 123.509 5.22946 123.418 5.26205C123.329 5.29643 123.242 5.33796 123.159 5.38626C123.078 5.43717 123.001 5.49488 122.93 5.55878C122.859 5.61738 122.796 5.68461 122.742 5.7589C122.688 5.8293 122.643 5.90666 122.609 5.98893C122.571 6.07993 122.544 6.17481 122.526 6.27186C122.507 6.3843 122.498 6.49823 122.499 6.6123V23.1742C122.499 23.296 122.509 23.4176 122.529 23.5377C122.547 23.6382 122.577 23.7362 122.618 23.8298C122.653 23.9121 122.698 23.9895 122.753 24.0598C122.808 24.1257 122.869 24.1851 122.937 24.237H122.951C123.034 24.3027 123.124 24.3605 123.219 24.4095C123.311 24.4578 123.408 24.4978 123.508 24.5291C123.615 24.5633 123.724 24.588 123.835 24.6027C123.957 24.6141 124.078 24.6172 124.2 24.6119C124.31 24.6106 124.42 24.6277 124.525 24.6625C124.628 24.6975 124.722 24.7539 124.801 24.8281L124.876 24.8971V24.9109C124.925 24.9693 124.964 25.0354 124.991 25.1065C125.033 25.2133 125.054 25.3274 125.053 25.4423V25.4883C125.048 25.5995 125.02 25.7085 124.97 25.808C124.916 25.9132 124.837 26.0038 124.741 26.0726C124.662 26.1261 124.576 26.1665 124.484 26.1922C124.389 26.2166 124.291 26.229 124.193 26.229H124.136L123.022 26.206L121.985 26.1876H121.094H119.533L118.778 26.1991L117.919 26.2175L117.002 26.2428H116.984H116.97C116.861 26.2434 116.753 26.2231 116.651 26.183C116.55 26.143 116.459 26.0809 116.385 26.0013C116.313 25.9257 116.259 25.8355 116.225 25.7367C116.19 25.637 116.172 25.532 116.172 25.4262C116.171 25.3201 116.189 25.2148 116.227 25.1157C116.264 25.018 116.321 24.9294 116.394 24.8557C116.465 24.7866 116.547 24.7313 116.637 24.6924C116.728 24.6562 116.824 24.6338 116.922 24.6257H117.151C117.255 24.6257 117.36 24.6173 117.463 24.6004C117.556 24.5856 117.647 24.5617 117.735 24.5291C117.819 24.4967 117.9 24.4566 117.976 24.4095C118.053 24.36 118.126 24.3047 118.194 24.2439C118.256 24.189 118.311 24.1264 118.357 24.0575C118.405 23.9855 118.445 23.9084 118.476 23.8275C118.509 23.7389 118.534 23.6472 118.549 23.5538C118.568 23.4452 118.577 23.3351 118.577 23.2248V9.06439L109.29 27.3193L100.696 9.1656V23.1489C100.695 23.2708 100.706 23.3925 100.728 23.5124C100.747 23.6128 100.777 23.7108 100.818 23.8045C100.853 23.8867 100.898 23.9641 100.953 24.0345C101.011 24.1025 101.076 24.1635 101.148 24.2163C101.23 24.2789 101.318 24.335 101.409 24.3842C101.502 24.4325 101.598 24.4725 101.698 24.5038C101.804 24.5377 101.913 24.5623 102.023 24.5774C102.144 24.5943 102.266 24.6028 102.388 24.6027C102.498 24.6012 102.607 24.6183 102.711 24.6533C102.813 24.6876 102.907 24.7433 102.986 24.8166C103.072 24.8929 103.139 24.9882 103.181 25.095C103.224 25.2025 103.245 25.3174 103.243 25.4331C103.245 25.5576 103.216 25.6807 103.16 25.7919C103.103 25.902 103.02 25.9961 102.917 26.0657C102.835 26.1202 102.745 26.1606 102.649 26.1853C102.551 26.2116 102.449 26.2247 102.347 26.2244H101.84H101.563L101.276 26.2221H101.035H100.831H100.575H100.366L100.066 26.2083H99.7609H99.3895L98.8256 26.2221L98.1929 26.2382L97.5051 26.2589H97.4868H97.4731C97.3654 26.2593 97.2584 26.2414 97.1567 26.206C97.0576 26.1706 96.9664 26.1159 96.8885 26.045C96.8067 25.9686 96.7425 25.8751 96.7005 25.7712C96.6583 25.6668 96.6372 25.555 96.6386 25.4423C96.6258 25.3164 96.6439 25.1892 96.6914 25.072C96.7356 24.9676 96.8039 24.8753 96.8908 24.8028C96.9627 24.74 97.046 24.6916 97.1361 24.6602C97.2259 24.6266 97.3201 24.6065 97.4157 24.6004H97.645C97.7487 24.6005 97.8522 24.5921 97.9545 24.5751C98.1366 24.5466 98.3113 24.4817 98.468 24.3842C98.5487 24.3352 98.6253 24.2799 98.6972 24.2186C98.7586 24.1631 98.8132 24.1005 98.8599 24.0322C98.9074 23.9602 98.9466 23.883 98.9769 23.8022C99.012 23.714 99.0374 23.6222 99.0525 23.5285C99.0707 23.4198 99.0792 23.3097 99.0777 23.1995V6.54099C99.0792 6.43234 99.0707 6.32377 99.0525 6.21666C99.0379 6.12304 99.0133 6.03126 98.9792 5.94292C98.948 5.86207 98.908 5.78493 98.8599 5.7129C98.812 5.64275 98.7566 5.57797 98.6949 5.51968C98.6243 5.45539 98.5475 5.39836 98.4657 5.34945C98.3897 5.30139 98.3091 5.26131 98.225 5.22984C98.1374 5.19718 98.0468 5.17329 97.9545 5.15853C97.8522 5.14155 97.7487 5.13309 97.645 5.13323H97.4157C97.3083 5.13458 97.2017 5.11505 97.1017 5.07573C97.0031 5.037 96.9139 4.97737 96.8404 4.9009C96.7671 4.82652 96.7108 4.73704 96.6753 4.63867C96.5991 4.43237 96.5991 4.2055 96.6753 3.9992C96.7161 3.8979 96.7781 3.80661 96.8572 3.73158C96.9364 3.65655 97.0307 3.59954 97.1338 3.56445C97.2355 3.52902 97.3425 3.51113 97.4501 3.51154H97.7963L98.2364 3.52304L98.7064 3.53914L99.1305 3.55985H99.1602L99.3895 3.57365H99.6187C99.8296 3.57365 99.9924 3.57365 100.203 3.55525L100.545 3.54144C100.669 3.54144 100.813 3.52994 100.992 3.52534L100.987 3.53454Z" fill="#242424"/>
<path d="M145.182 23.858C145.129 23.6839 145.06 23.5152 144.976 23.3542L142.982 19.1884H132.223L130.231 23.3542C130.147 23.5154 130.077 23.684 130.023 23.858C129.986 23.9724 129.969 24.0921 129.97 24.2122V24.2352C129.965 24.3233 129.984 24.4111 130.024 24.4895C130.065 24.568 130.125 24.6342 130.199 24.6815C130.498 24.8297 130.83 24.8956 131.162 24.8724H131.231C131.395 24.8643 131.557 24.9139 131.689 25.0127C131.758 25.0674 131.812 25.1377 131.848 25.2177C131.884 25.2977 131.9 25.3851 131.896 25.4727V25.4865C131.896 25.5715 131.876 25.6552 131.836 25.73C131.796 25.8048 131.737 25.8683 131.666 25.9144C131.541 25.9923 131.396 26.0308 131.249 26.0248H131.229C130.715 26.0248 130.183 25.9972 129.706 25.9742C129.342 25.9558 129.019 25.9374 128.728 25.9374C128.436 25.9374 128.175 25.9374 127.983 25.9489C127.79 25.9604 127.609 25.9673 127.471 25.9811C127.325 25.9972 127.153 26.0087 126.958 26.0179C126.763 26.0271 126.536 26.0294 126.318 26.0294C126.158 26.0404 125.998 26.0019 125.86 25.919C125.786 25.8716 125.725 25.8053 125.685 25.7269C125.645 25.6485 125.626 25.5608 125.631 25.4727C125.628 25.3897 125.643 25.3071 125.677 25.231C125.71 25.1549 125.76 25.0874 125.823 25.0334C125.944 24.936 126.094 24.8811 126.249 24.877H126.27C126.535 24.8772 126.798 24.8361 127.05 24.7551C127.33 24.6661 127.598 24.5392 127.845 24.3778C128.112 24.2096 128.352 24.0026 128.558 23.7637C128.778 23.5094 128.964 23.2271 129.11 22.9241L138.899 2.79901L148.616 22.9241C148.758 23.222 148.935 23.5015 149.143 23.7568C149.337 23.9916 149.563 24.1969 149.815 24.3663C150.049 24.5272 150.302 24.6564 150.569 24.7505C150.803 24.8324 151.049 24.8751 151.296 24.877C151.472 24.8691 151.648 24.9096 151.803 24.9943C151.887 25.0422 151.956 25.1123 152.004 25.1971C152.051 25.2818 152.074 25.378 152.071 25.475C152.074 25.5626 152.055 25.6495 152.014 25.7273C151.974 25.805 151.915 25.8711 151.842 25.919C151.711 25.9993 151.559 26.0386 151.406 26.0317L150.718 26.0179L149.529 25.9811C148.998 25.9673 148.525 25.9573 148.11 25.9512C147.736 25.9512 147.371 25.9397 147.007 25.9397C146.826 25.9397 146.626 25.9397 146.411 25.9512C146.195 25.9627 145.897 25.9696 145.567 25.9857L144.65 26.0202C144.35 26.0202 144.105 26.0317 143.919 26.0317C143.766 26.0386 143.614 25.9993 143.484 25.919C143.41 25.8711 143.351 25.805 143.311 25.7273C143.271 25.6495 143.251 25.5626 143.254 25.475C143.251 25.3902 143.268 25.3058 143.304 25.2287C143.339 25.1516 143.392 25.0839 143.458 25.0311C143.584 24.9356 143.736 24.8824 143.894 24.8793H143.99C144.329 24.8962 144.667 24.8265 144.971 24.6769C145.045 24.6326 145.105 24.5692 145.145 24.4935C145.185 24.4178 145.205 24.3325 145.201 24.2467V24.2191C145.2 24.0989 145.181 23.9795 145.146 23.8649M142.376 18.0429L138.113 9.13625L138.101 9.11095L137.643 7.8803L132.755 18.0429H142.376Z" fill="#242424"/>
<path d="M155.443 24.4165C155.817 24.538 156.2 24.6288 156.589 24.6879C156.99 24.7503 157.394 24.7811 157.8 24.78C158.162 24.7814 158.524 24.746 158.879 24.6741C159.201 24.606 159.515 24.5003 159.812 24.359C160.099 24.218 160.368 24.0426 160.612 23.8368C160.869 23.6181 161.1 23.3703 161.3 23.0985C161.51 22.8101 161.692 22.5019 161.843 22.1784C161.999 21.8481 162.123 21.5038 162.215 21.1501C162.313 20.7729 162.381 20.3883 162.416 20C162.454 19.5732 162.462 19.1443 162.439 18.7165C162.422 18.3673 162.386 18.0194 162.329 17.6744C162.273 17.3569 162.197 17.0434 162.1 16.7359C162.009 16.451 161.896 16.1734 161.763 15.9055C161.631 15.6476 161.478 15.4014 161.305 15.1694V15.1556C161.15 14.9523 160.971 14.7684 160.773 14.6082C160.565 14.4431 160.339 14.3034 160.099 14.1918C159.833 14.0719 159.556 13.9809 159.271 13.9204C158.962 13.8561 158.649 13.8169 158.334 13.8031H158.036C157.931 13.8037 157.827 13.7945 157.724 13.7755C157.628 13.7588 157.535 13.7278 157.449 13.6835C157.328 13.6234 157.225 13.5321 157.151 13.4189C157.078 13.3055 157.038 13.1742 157.034 13.0394C157.024 12.9057 157.049 12.7716 157.106 12.6505C157.164 12.5295 157.252 12.4256 157.362 12.3493C157.448 12.2875 157.544 12.2408 157.646 12.2113C157.753 12.1799 157.863 12.1614 157.974 12.1561H158.008C158.345 12.1577 158.68 12.1246 159.01 12.0572C159.307 11.9972 159.595 11.8998 159.867 11.7673C160.109 11.651 160.333 11.4999 160.532 11.3188C160.701 11.1667 160.847 10.9899 160.963 10.7943L160.993 10.7391C161.118 10.5178 161.225 10.2871 161.314 10.049C161.4 9.82841 161.469 9.60157 161.52 9.37047C161.569 9.143 161.603 8.91244 161.621 8.68039C161.636 8.4506 161.636 8.2201 161.621 7.99031C161.608 7.70391 161.575 7.41876 161.522 7.13691C161.472 6.8733 161.4 6.6141 161.309 6.36172C161.223 6.12308 161.116 5.89223 160.991 5.67164C160.876 5.47391 160.747 5.28479 160.605 5.10577L160.56 5.05287C160.408 4.87047 160.235 4.70608 160.046 4.56291C159.862 4.42457 159.662 4.30874 159.45 4.21787C159.229 4.12192 158.999 4.05095 158.762 4.00624C158.498 3.95897 158.229 3.93587 157.96 3.93723C157.59 3.9355 157.221 3.97484 156.86 4.05455C156.533 4.1287 156.218 4.24628 155.922 4.40419C155.651 4.55073 155.403 4.73678 155.186 4.95625C154.986 5.16044 154.817 5.39293 154.684 5.64633L154.659 5.69464C154.514 5.98547 154.389 6.28598 154.285 6.59404C154.184 6.90032 154.104 7.2131 154.045 7.53025C153.984 7.85936 153.945 8.19207 153.928 8.52627C153.908 8.87871 153.908 9.23196 153.928 9.58439C153.928 9.6304 153.941 9.75461 153.951 9.86732V9.91563C153.951 10.0145 153.967 10.0974 153.969 10.1112C153.973 10.2061 153.961 10.3011 153.932 10.3918C153.902 10.4862 153.852 10.5732 153.786 10.6471C153.721 10.7193 153.643 10.778 153.556 10.8196C153.467 10.8623 153.371 10.8881 153.272 10.8955H153.217C153.096 10.8966 152.976 10.8674 152.869 10.8104C152.762 10.7501 152.67 10.6659 152.6 10.5643C152.551 10.4933 152.512 10.4159 152.484 10.3343C152.454 10.2498 152.431 10.1628 152.417 10.0743C152.383 9.90873 152.339 9.72241 152.291 9.51769C152.243 9.31296 152.197 9.12894 152.147 8.94262C152.096 8.7563 152.041 8.55617 151.984 8.35605C151.926 8.15593 151.876 7.99721 151.819 7.81779L151.803 7.76488C151.725 7.51875 151.661 7.30483 151.606 7.14841C151.551 6.99199 151.489 6.79877 151.445 6.67225C151.402 6.54574 151.356 6.41462 151.31 6.29961C151.264 6.1846 151.236 6.10639 151.209 6.04658L151.193 6.00747V5.98907C151.151 5.84803 151.16 5.69699 151.216 5.56122C151.274 5.41419 151.358 5.27869 151.463 5.16098C151.55 5.06119 151.642 4.96599 151.739 4.87574C151.846 4.77223 151.968 4.65722 152.114 4.53531C152.261 4.41339 152.429 4.27998 152.605 4.15576C152.782 4.03155 152.974 3.90963 153.19 3.78312C153.405 3.6566 153.625 3.53699 153.861 3.41737C154.097 3.29776 154.352 3.17585 154.618 3.05853C154.884 2.94122 155.163 2.82851 155.445 2.7388C155.719 2.648 155.998 2.57123 156.28 2.50877C156.556 2.44507 156.835 2.39745 157.116 2.36615C157.391 2.33421 157.667 2.31809 157.944 2.31785C158.484 2.31689 159.024 2.34684 159.56 2.40756C160.061 2.46438 160.558 2.55429 161.048 2.67669C161.517 2.79565 161.977 2.94943 162.423 3.13674C162.852 3.3158 163.266 3.52887 163.661 3.77392C164.043 4.00906 164.399 4.28434 164.723 4.59511C165.026 4.88404 165.292 5.21018 165.513 5.56582C165.73 5.91711 165.901 6.29523 166.02 6.69065C166.141 7.09843 166.211 7.51939 166.231 7.9443C166.272 8.61314 166.183 9.28365 165.967 9.91793C165.755 10.5212 165.414 11.0707 164.968 11.5281C164.612 11.8929 164.209 12.2079 163.769 12.4643C163.461 12.644 163.142 12.8031 162.813 12.9405L162.889 12.9681C163.118 13.0578 163.329 13.1521 163.535 13.2533C163.898 13.4323 164.244 13.644 164.569 13.8859C164.878 14.1166 165.164 14.3778 165.422 14.6657L165.481 14.7324C165.702 14.9886 165.903 15.2608 166.084 15.5467C166.275 15.8518 166.439 16.1727 166.575 16.5059C166.711 16.8413 166.817 17.1886 166.891 17.5433C166.97 17.9098 167.017 18.2822 167.033 18.6566C167.061 19.1725 167.028 19.6898 166.935 20.1978C166.842 20.695 166.688 21.1786 166.476 21.6378C166.262 22.1068 165.995 22.5491 165.678 22.9558C165.337 23.3929 164.953 23.7944 164.532 24.1543C164.1 24.5284 163.632 24.8582 163.134 25.1388C162.627 25.4246 162.093 25.6603 161.541 25.8427C160.965 26.0328 160.373 26.1729 159.773 26.2613C159.129 26.3558 158.478 26.4027 157.827 26.4016C157.306 26.4017 156.786 26.3617 156.271 26.282C155.777 26.2041 155.291 26.084 154.817 25.9232C154.35 25.7645 153.898 25.5635 153.467 25.3228C153.093 25.1136 152.735 24.876 152.396 24.612L152.215 24.4625C151.841 24.1575 151.493 23.8204 151.177 23.455C150.882 23.1171 150.623 22.7494 150.404 22.3578C150.194 21.98 150.026 21.5795 149.905 21.1639C149.787 20.7494 149.717 20.3225 149.696 19.8919C149.691 19.7864 149.698 19.6807 149.717 19.5767C149.735 19.4785 149.771 19.3843 149.822 19.2984L149.944 19.0983L149.973 19.1167C150.011 19.0839 150.053 19.0553 150.097 19.0316C150.21 18.9715 150.336 18.9414 150.464 18.9442C150.59 18.9432 150.715 18.9682 150.831 19.0178C150.945 19.0712 151.045 19.1499 151.124 19.2478C151.192 19.3327 151.244 19.4294 151.278 19.5331C151.312 19.6427 151.331 19.7564 151.335 19.8712C151.351 20.1954 151.404 20.5166 151.496 20.8281C151.586 21.1366 151.713 21.4332 151.874 21.7114C152.048 22.0089 152.254 22.2866 152.488 22.5395C152.715 22.7831 152.962 23.0085 153.224 23.2135L153.341 23.3009C153.663 23.5429 154.003 23.7591 154.359 23.9473C154.705 24.1299 155.065 24.2837 155.436 24.4073" fill="#242424"/>
<path d="M167.204 34.9393H162.395V35.6409H167.204V34.9393Z" fill="#2B2A29"/>
<path d="M47.0604 34.9393H42.251V35.6386H47.0604V34.9393Z" fill="#2B2A29"/>
<path d="M54.064 36.9839C54.3098 37.2228 54.6387 37.3564 54.9809 37.3564C55.3232 37.3564 55.652 37.2228 55.8979 36.9839C56.1289 36.7104 56.2557 36.3636 56.2557 36.0051C56.2557 35.6466 56.1289 35.2998 55.8979 35.0264C55.652 34.7874 55.3232 34.6539 54.9809 34.6539C54.6387 34.6539 54.3098 34.7874 54.064 35.0264C53.833 35.2998 53.7062 35.6466 53.7062 36.0051C53.7062 36.3636 53.833 36.7104 54.064 36.9839ZM56.4893 37.5337C56.084 37.9231 55.5444 38.1405 54.9832 38.1405C54.422 38.1405 53.8825 37.9231 53.4771 37.5337C53.0955 37.1172 52.8837 36.572 52.8837 36.0063C52.8837 35.4405 53.0955 34.8954 53.4771 34.4789C53.8817 34.0879 54.4215 33.8694 54.9832 33.8694C55.5449 33.8694 56.0848 34.0879 56.4893 34.4789C56.871 34.8954 57.0828 35.4405 57.0828 36.0063C57.0828 36.572 56.871 37.1172 56.4893 37.5337ZM58.0183 35.4105L58.094 33.8992H61.1589V38.1133H60.3428V34.6813H58.8436L58.8023 35.4634C58.791 36.0665 58.7103 36.6663 58.5616 37.2507C58.3874 37.8051 58.0917 38.157 57.5782 38.157C57.5159 38.1564 57.4537 38.1502 57.3925 38.1386C57.3398 38.1386 57.2802 38.1156 57.216 38.0995L57.0211 38.0489L57.1105 37.2829L57.3604 37.345L57.4361 37.3611C57.4505 37.3634 57.4652 37.3634 57.4796 37.3611C57.6653 37.3611 57.7822 37.1587 57.8602 36.8551C57.9559 36.3793 58.0088 35.8958 58.0183 35.4105ZM63.0616 36.9839C63.3072 37.2233 63.6361 37.3573 63.9785 37.3573C64.3209 37.3573 64.6499 37.2233 64.8955 36.9839C65.1278 36.7111 65.2554 36.364 65.2554 36.0051C65.2554 35.6463 65.1278 35.2992 64.8955 35.0264C64.6499 34.7869 64.3209 34.653 63.9785 34.653C63.6361 34.653 63.3072 34.7869 63.0616 35.0264C62.8292 35.2992 62.7016 35.6463 62.7016 36.0051C62.7016 36.364 62.8292 36.7111 63.0616 36.9839ZM65.4869 37.5337C65.0816 37.9231 64.542 38.1405 63.9808 38.1405C63.4196 38.1405 62.8801 37.9231 62.4747 37.5337C62.0916 37.1179 61.8788 36.5725 61.8788 36.0063C61.8788 35.44 62.0916 34.8946 62.4747 34.4789C62.8793 34.0879 63.4191 33.8694 63.9808 33.8694C64.5425 33.8694 65.0824 34.0879 65.4869 34.4789C65.8685 34.8954 66.0803 35.4405 66.0803 36.0063C66.0803 36.572 65.8685 37.1172 65.4869 37.5337ZM66.0967 33.8992H69.6086V34.6813H68.1461V38.1133H67.3254V34.6813H65.8629V33.8992H66.0967ZM70.5485 36.9839C70.7941 37.2233 71.123 37.3573 71.4654 37.3573C71.8079 37.3573 72.1368 37.2233 72.3824 36.9839C72.6147 36.7111 72.7424 36.364 72.7424 36.0051C72.7424 35.6463 72.6147 35.2992 72.3824 35.0264C72.1368 34.7869 71.8079 34.653 71.4654 34.653C71.123 34.653 70.7941 34.7869 70.5485 35.0264C70.3162 35.2992 70.1885 35.6463 70.1885 36.0051C70.1885 36.364 70.3162 36.7111 70.5485 36.9839ZM72.9738 37.5337C72.5685 37.9231 72.0289 38.1405 71.4677 38.1405C70.9065 38.1405 70.367 37.9231 69.9616 37.5337C69.5785 37.1179 69.3657 36.5725 69.3657 36.0063C69.3657 35.44 69.5785 34.8946 69.9616 34.4789C70.3662 34.0879 70.906 33.8694 71.4677 33.8694C72.0294 33.8694 72.5693 34.0879 72.9738 34.4789C73.3555 34.8954 73.5673 35.4405 73.5673 36.0063C73.5673 36.572 73.3555 37.1172 72.9738 37.5337ZM77.0726 35.675H78.2784C78.6618 35.7026 79.043 35.597 79.3581 35.376C79.5777 35.1544 79.701 34.8547 79.701 34.5422C79.701 34.2296 79.5777 33.9299 79.3581 33.7083C79.0447 33.4854 78.6638 33.3789 78.2807 33.407H77.068L77.0726 35.675ZM76.4789 32.618H78.2784C78.8646 32.5878 79.4426 32.7662 79.9106 33.1217C80.1058 33.3029 80.2616 33.5225 80.3681 33.767C80.4746 34.0114 80.5296 34.2754 80.5296 34.5422C80.5296 34.809 80.4746 35.0729 80.3681 35.3173C80.2616 35.5618 80.1058 35.7814 79.9106 35.9626C79.4415 36.3159 78.8643 36.494 78.2784 36.4663H77.068V38.1133H76.245V32.618H76.4789ZM81.8935 36.9885C82.1391 37.2279 82.468 37.3619 82.8104 37.3619C83.1529 37.3619 83.4818 37.2279 83.7274 36.9885C83.9597 36.7157 84.0874 36.3686 84.0874 36.0097C84.0874 35.6509 83.9597 35.3038 83.7274 35.031C83.4818 34.7915 83.1529 34.6576 82.8104 34.6576C82.468 34.6576 82.1391 34.7915 81.8935 35.031C81.6612 35.3038 81.5335 35.6509 81.5335 36.0097C81.5335 36.3686 81.6612 36.7157 81.8935 36.9885ZM84.3119 37.5337C83.9066 37.9231 83.367 38.1405 82.8058 38.1405C82.2446 38.1405 81.7051 37.9231 81.2997 37.5337C80.9181 37.1172 80.7063 36.572 80.7063 36.0063C80.7063 35.4405 80.9181 34.8954 81.2997 34.4789C81.7043 34.0879 82.2441 33.8694 82.8058 33.8694C83.3675 33.8694 83.9074 34.0879 84.3119 34.4789C84.6951 34.8946 84.9079 35.44 84.9079 36.0063C84.9079 36.5725 84.6951 37.1179 84.3119 37.5337ZM88.2846 37.9385C87.9983 38.0751 87.6847 38.1443 87.3677 38.1409C87.0492 38.1381 86.7355 38.0636 86.4495 37.923C86.1636 37.7824 85.9127 37.5792 85.7153 37.3284C85.518 37.0776 85.3792 36.7856 85.3092 36.4739C85.2392 36.1622 85.2397 35.8386 85.3108 35.5272C85.3818 35.2157 85.5216 34.9241 85.7198 34.674C85.918 34.4239 86.1696 34.2216 86.456 34.082C86.7425 33.9423 87.0565 33.8689 87.3749 33.8671C87.6934 33.8654 88.0081 33.9353 88.2961 34.0717C88.5739 34.2035 88.8114 34.4077 88.9838 34.6629L89.1053 34.8446L88.4772 35.3047L88.3419 35.1184C88.2392 34.9706 88.1002 34.8517 87.9385 34.7733C87.6909 34.662 87.416 34.6266 87.1484 34.6716C86.8809 34.7166 86.6325 34.84 86.4347 35.0264C86.2022 35.2995 86.0745 35.647 86.0745 36.0063C86.0745 36.3655 86.2022 36.713 86.4347 36.9862C86.5581 37.1089 86.705 37.2052 86.8665 37.2692C87.0281 37.3333 87.2009 37.3638 87.3746 37.3588C87.5691 37.3617 87.7618 37.3209 87.9385 37.2392C88.0997 37.16 88.2385 37.0414 88.3419 36.8942L88.4772 36.7078L89.1076 37.1679L88.9815 37.3519C88.806 37.6068 88.5653 37.8094 88.2846 37.9385ZM92.2161 37.9385C91.8143 38.1231 91.3668 38.1834 90.9308 38.1117C90.4947 38.04 90.0898 37.8395 89.7678 37.5359C89.4613 37.2376 89.2513 36.8537 89.1652 36.434C89.0791 36.0143 89.1209 35.5783 89.2851 35.1827C89.4493 34.7872 89.7283 34.4504 90.0859 34.2161C90.4434 33.9819 90.863 33.861 91.2899 33.8693C91.6108 33.8647 91.9284 33.9339 92.2184 34.0717C92.4966 34.2029 92.7342 34.4072 92.9061 34.6629L93.0276 34.8446L92.3995 35.3047L92.2665 35.1184C92.1629 34.9705 92.0232 34.8517 91.8607 34.7733C91.6134 34.6625 91.339 34.6273 91.0719 34.6724C90.8048 34.7174 90.5569 34.8405 90.3592 35.0264C90.1254 35.2989 89.9968 35.6466 89.9968 36.0063C89.9968 36.3659 90.1254 36.7136 90.3592 36.9862C90.482 37.109 90.6285 37.2054 90.7897 37.2695C90.951 37.3336 91.1235 37.364 91.2968 37.3588C91.4914 37.362 91.6841 37.3211 91.8607 37.2392C92.0227 37.1601 92.1622 37.0415 92.2665 36.8942L92.3995 36.7078L93.0299 37.1679L92.9061 37.3519C92.7313 37.6048 92.4933 37.807 92.2161 37.9385ZM94.0867 38.1133H93.5434V33.8992H94.3594V36.6987L96.6908 33.8992H97.3418V38.1133H96.5257V35.3139L94.1921 38.1133H94.0867ZM98.9763 38.1133H98.433V33.8992H99.2491V36.6987L101.583 33.8992H102.231V38.1133H101.415V35.3139L99.084 38.1133H98.9763ZM105.842 37.161C106.077 37.3222 106.358 37.4029 106.642 37.391C106.891 37.3951 107.138 37.3457 107.366 37.2461C107.517 37.1775 107.655 37.0834 107.774 36.9678L106.461 35.5876C106.206 35.7344 105.974 35.9189 105.773 36.1351C105.647 36.2736 105.579 36.4557 105.583 36.6434C105.583 36.744 105.606 36.8431 105.651 36.933C105.696 37.0228 105.762 37.1009 105.842 37.161ZM106.358 33.4806C106.307 33.5282 106.266 33.5864 106.24 33.6511C106.213 33.7158 106.201 33.7856 106.204 33.8555C106.202 33.9769 106.234 34.0964 106.296 34.2006C106.389 34.3531 106.498 34.4951 106.621 34.6238C106.843 34.4983 107.046 34.3435 107.227 34.1638C107.278 34.1143 107.319 34.0551 107.347 33.9895C107.375 33.9238 107.389 33.8533 107.389 33.7819C107.393 33.7209 107.382 33.6599 107.36 33.6031C107.337 33.5463 107.303 33.4951 107.259 33.453C107.135 33.3615 106.983 33.3174 106.83 33.3288C106.661 33.3184 106.493 33.369 106.358 33.4714V33.4806ZM108.776 36.9034L109.551 37.7246L109.028 38.3019L108.299 37.5337C108.113 37.7105 107.898 37.853 107.662 37.9546C107.335 38.0936 106.983 38.1633 106.628 38.1593C106.157 38.1737 105.694 38.0331 105.31 37.7591C105.14 37.6334 105.002 37.4692 104.907 37.2796C104.812 37.0901 104.763 36.8808 104.765 36.6687C104.762 36.3231 104.884 35.9881 105.108 35.7256C105.347 35.4525 105.628 35.2195 105.941 35.0356C105.795 34.8787 105.671 34.704 105.569 34.5157C105.462 34.3126 105.407 34.0854 105.411 33.8555C105.407 33.6818 105.441 33.5093 105.51 33.3503C105.58 33.1913 105.684 33.0496 105.814 32.9354C106.102 32.7045 106.462 32.5852 106.83 32.5996C107.174 32.5795 107.513 32.684 107.786 32.894C107.909 33.0023 108.007 33.1367 108.072 33.2875C108.137 33.4382 108.167 33.6016 108.162 33.7658C108.166 34.0683 108.056 34.3612 107.852 34.5847C107.646 34.8097 107.408 35.0034 107.146 35.1598L108.21 36.2892C108.231 36.2409 108.249 36.1926 108.267 36.1397C108.326 35.9708 108.372 35.7978 108.405 35.6221L108.455 35.3691L109.187 35.5991L109.148 35.8016C109.102 36.0299 109.039 36.2544 108.96 36.4732C108.908 36.6174 108.846 36.758 108.776 36.8942V36.9034ZM114.888 37.2645C115.068 37.209 115.238 37.1252 115.392 37.0161V35.1644H116.201V37.3772L116.13 37.4439C115.88 37.6796 115.583 37.8599 115.259 37.973C114.912 38.0964 114.547 38.1586 114.179 38.157C113.423 38.1707 112.692 37.8867 112.141 37.3657C111.619 36.8345 111.326 36.118 111.326 35.3714C111.326 34.6248 111.619 33.9083 112.141 33.3771C112.692 32.8564 113.425 32.5731 114.182 32.5881C114.558 32.5845 114.932 32.65 115.284 32.7813C115.612 32.9039 115.909 33.098 116.153 33.3495L116.304 33.5059L115.766 34.0809L115.601 33.9153C115.42 33.7344 115.201 33.5954 114.961 33.5082C114.713 33.4228 114.453 33.3815 114.191 33.3863C113.647 33.3748 113.12 33.5779 112.724 33.9521C112.353 34.3311 112.145 34.8412 112.145 35.3725C112.145 35.9039 112.353 36.414 112.724 36.793C113.12 37.1664 113.645 37.3695 114.189 37.3588C114.425 37.3629 114.661 37.3311 114.888 37.2645ZM118.01 36.9839C118.256 37.2228 118.585 37.3564 118.927 37.3564C119.269 37.3564 119.598 37.2228 119.844 36.9839C120.075 36.7104 120.202 36.3636 120.202 36.0051C120.202 35.6466 120.075 35.2998 119.844 35.0264C119.598 34.7874 119.269 34.6539 118.927 34.6539C118.585 34.6539 118.256 34.7874 118.01 35.0264C117.779 35.2998 117.652 35.6466 117.652 36.0051C117.652 36.3636 117.779 36.7104 118.01 36.9839ZM120.435 37.5337C120.03 37.9231 119.49 38.1405 118.929 38.1405C118.368 38.1405 117.828 37.9231 117.423 37.5337C117.041 37.1172 116.83 36.572 116.83 36.0063C116.83 35.4405 117.041 34.8954 117.423 34.4789C117.828 34.0879 118.367 33.8694 118.929 33.8694C119.491 33.8694 120.031 34.0879 120.435 34.4789C120.817 34.8954 121.029 35.4405 121.029 36.0063C121.029 36.572 120.817 37.1172 120.435 37.5337ZM122.269 38.1133H121.678V32.3143H122.494V38.1133H122.269ZM124.332 36.9839C124.578 37.2228 124.907 37.3564 125.249 37.3564C125.592 37.3564 125.92 37.2228 126.166 36.9839C126.397 36.7104 126.524 36.3636 126.524 36.0051C126.524 35.6466 126.397 35.2998 126.166 35.0264C125.92 34.7874 125.592 34.6539 125.249 34.6539C124.907 34.6539 124.578 34.7874 124.332 35.0264C124.101 35.2998 123.975 35.6466 123.975 36.0051C123.975 36.3636 124.101 36.7104 124.332 36.9839ZM126.528 34.3432V32.3143H127.344V38.1133H126.535V37.6671C126.451 37.7436 126.358 37.8115 126.26 37.8695C125.948 38.0516 125.592 38.1461 125.231 38.1432C124.954 38.1479 124.679 38.0961 124.422 37.9909C124.166 37.8857 123.933 37.7294 123.739 37.5313C123.361 37.1131 123.153 36.5692 123.153 36.0051C123.153 35.4411 123.361 34.8972 123.739 34.4789C123.934 34.2817 124.167 34.1262 124.424 34.0214C124.681 33.9167 124.956 33.865 125.233 33.8693C125.59 33.8663 125.94 33.9592 126.249 34.1385C126.346 34.1977 126.437 34.2663 126.522 34.3432H126.528ZM131.017 36.9839C131.262 37.2233 131.591 37.3573 131.934 37.3573C132.276 37.3573 132.605 37.2233 132.851 36.9839C133.083 36.7111 133.211 36.364 133.211 36.0051C133.211 35.6463 133.083 35.2992 132.851 35.0264C132.605 34.7869 132.276 34.653 131.934 34.653C131.591 34.653 131.262 34.7869 131.017 35.0264C130.785 35.2992 130.657 35.6463 130.657 36.0051C130.657 36.364 130.785 36.7111 131.017 36.9839ZM133.442 37.5337C133.037 37.9231 132.497 38.1405 131.936 38.1405C131.375 38.1405 130.835 37.9231 130.43 37.5337C130.047 37.1179 129.834 36.5725 129.834 36.0063C129.834 35.44 130.047 34.8946 130.43 34.4789C130.835 34.0879 131.374 33.8694 131.936 33.8694C132.498 33.8694 133.038 34.0879 133.442 34.4789C133.824 34.8954 134.036 35.4405 134.036 36.0063C134.036 36.572 133.824 37.1172 133.442 37.5337ZM136.287 33.0941C136.209 33.0678 136.127 33.0545 136.044 33.055C135.98 33.0481 135.914 33.055 135.853 33.0752C135.791 33.0954 135.734 33.1285 135.686 33.1723C135.598 33.2892 135.556 33.4354 135.57 33.5818V33.8992H136.768V34.6675H135.576V38.1179H134.744V34.6675H134.057V33.8992H134.744V33.5519C134.733 33.382 134.758 33.2117 134.818 33.0525C134.878 32.8932 134.971 32.7487 135.092 32.6288C135.212 32.5088 135.357 32.4162 135.516 32.3572C135.675 32.2982 135.845 32.2742 136.014 32.2867C136.181 32.2864 136.346 32.312 136.505 32.3626C136.653 32.4096 136.79 32.488 136.906 32.5927L137.037 32.7123L136.674 33.4024L136.445 33.2045C136.397 33.1587 136.341 33.1213 136.28 33.0941H136.287ZM139.822 33.407V35.6819H141.028C141.41 35.7096 141.79 35.6031 142.103 35.3806C142.212 35.2708 142.299 35.1405 142.358 34.997C142.418 34.8535 142.448 34.6997 142.448 34.5444C142.448 34.3892 142.418 34.2354 142.358 34.0919C142.299 33.9485 142.212 33.8181 142.103 33.7083C141.789 33.4858 141.409 33.3793 141.025 33.407H139.822ZM142.234 36.2317L143.572 38.1133H142.596L141.392 36.4433L141.278 36.4548C141.19 36.4548 141.101 36.4548 141.012 36.4548H139.806V38.1018H138.983V32.618H141.012C141.601 32.5866 142.183 32.7659 142.653 33.124C142.857 33.2989 143.018 33.5179 143.126 33.7646C143.233 34.0112 143.283 34.279 143.272 34.5479C143.283 34.9544 143.16 35.3532 142.921 35.6819C142.74 35.9214 142.501 36.1106 142.227 36.2317H142.234ZM146.967 36.1282V33.8992H147.783V38.1133H146.981V37.743C146.915 37.7987 146.845 37.8487 146.77 37.8925C146.473 38.0616 146.137 38.1482 145.796 38.1432C145.555 38.1553 145.314 38.1183 145.088 38.0345C144.862 37.9506 144.655 37.8218 144.48 37.6556C144.316 37.4762 144.19 37.2657 144.108 37.0366C144.027 36.8075 143.992 36.5643 144.006 36.3214V33.8992H144.822V36.2938C144.8 36.5844 144.891 36.8722 145.076 37.0966C145.176 37.1897 145.295 37.2611 145.424 37.3062C145.553 37.3513 145.689 37.3692 145.826 37.3588C145.98 37.3664 146.135 37.3414 146.279 37.2856C146.424 37.2297 146.555 37.1442 146.665 37.0345C146.874 36.7807 146.979 36.4569 146.96 36.1282H146.967ZM151.231 37.8258C150.869 38.0508 150.447 38.1606 150.021 38.1409C149.71 38.1407 149.4 38.0926 149.104 37.9983C148.833 37.9189 148.582 37.7825 148.368 37.5981L148.237 37.4738L148.629 36.7838L148.836 36.9609C148.995 37.0907 149.178 37.189 149.374 37.2507C149.588 37.322 149.812 37.3585 150.037 37.3588C150.28 37.3763 150.523 37.3278 150.741 37.2185C150.796 37.1832 150.841 37.1337 150.871 37.0751C150.902 37.0165 150.916 36.9509 150.912 36.885C150.912 36.5675 150.472 36.4847 149.996 36.3973C149.244 36.2547 148.43 36.1029 148.43 35.1207C148.428 34.9365 148.471 34.7546 148.555 34.591C148.64 34.4274 148.763 34.287 148.914 34.1822C149.259 33.9556 149.666 33.8437 150.078 33.8624C150.34 33.8631 150.601 33.9003 150.853 33.9728C151.085 34.0341 151.304 34.1369 151.499 34.2765L151.66 34.3984L151.268 35.0885L151.061 34.939C150.927 34.8415 150.776 34.7684 150.617 34.7227C150.44 34.6701 150.256 34.6437 150.071 34.6445C149.846 34.63 149.621 34.6803 149.422 34.7894C149.367 34.8245 149.321 34.8735 149.29 34.9316C149.26 34.9897 149.244 35.0548 149.246 35.1207C149.246 35.4634 149.704 35.5508 150.188 35.6428C150.935 35.7854 151.726 35.935 151.726 36.8827C151.729 37.0697 151.684 37.2543 151.597 37.4193C151.509 37.5842 151.381 37.7241 151.224 37.8258H151.231ZM154.67 37.8258C154.307 38.0513 153.885 38.1612 153.459 38.1409C153.148 38.1406 152.839 38.0925 152.542 37.9983C152.272 37.919 152.022 37.7825 151.809 37.5981L151.676 37.4738L152.068 36.7838L152.276 36.9609C152.436 37.0912 152.619 37.1896 152.815 37.2507C153.028 37.322 153.251 37.3585 153.475 37.3588C153.718 37.3765 153.961 37.328 154.179 37.2185C154.235 37.1832 154.28 37.1337 154.31 37.0751C154.34 37.0165 154.354 36.9509 154.351 36.885C154.351 36.5675 153.911 36.4847 153.434 36.3973C152.68 36.2547 151.866 36.1029 151.866 35.1207C151.865 34.9366 151.908 34.7549 151.992 34.5914C152.077 34.4279 152.199 34.2875 152.35 34.1822C152.695 33.9559 153.102 33.844 153.514 33.8624C153.777 33.8633 154.039 33.9005 154.291 33.9728C154.516 34.0358 154.728 34.1378 154.917 34.2742L155.078 34.3961L154.686 35.0862L154.482 34.9366C154.347 34.8401 154.196 34.767 154.037 34.7204C153.859 34.6679 153.675 34.6416 153.489 34.6422C153.264 34.6277 153.039 34.678 152.84 34.7871C152.785 34.8226 152.74 34.8716 152.709 34.9296C152.678 34.9876 152.663 35.0526 152.664 35.1184C152.664 35.4611 153.122 35.5485 153.608 35.6405C154.353 35.7831 155.144 35.9327 155.144 36.8804C155.148 37.0669 155.105 37.2515 155.019 37.4168C154.933 37.5821 154.806 37.7228 154.651 37.8258H154.67ZM156.3 38.1133H155.713V33.8992H156.522V38.1133H156.3ZM156.49 33.2828C156.442 33.332 156.384 33.371 156.321 33.3975C156.258 33.424 156.189 33.4374 156.121 33.4369C155.984 33.4372 155.852 33.3835 155.754 33.2874C155.681 33.2145 155.631 33.1214 155.611 33.0201C155.59 32.9187 155.6 32.8135 155.64 32.718C155.679 32.6224 155.746 32.5406 155.831 32.4831C155.917 32.4256 156.018 32.3949 156.121 32.3948C156.258 32.3947 156.389 32.4484 156.488 32.5444C156.536 32.5925 156.575 32.65 156.602 32.7134C156.628 32.7768 156.642 32.8448 156.642 32.9136C156.642 32.9823 156.628 33.0503 156.602 33.1137C156.575 33.1771 156.536 33.2346 156.488 33.2828H156.49ZM158.248 37.2185C158.434 37.3391 158.653 37.3964 158.874 37.3818C159.109 37.3894 159.341 37.3278 159.541 37.2047C159.715 37.0867 159.85 36.9193 159.928 36.724V36.2938H158.881C158.655 36.275 158.428 36.3264 158.232 36.441C158.175 36.4851 158.13 36.5425 158.1 36.6083C158.071 36.6741 158.058 36.7462 158.062 36.8183C158.055 36.8947 158.067 36.9716 158.096 37.0425C158.125 37.1135 158.171 37.1762 158.23 37.2254L158.248 37.2185ZM158.179 34.0165C158.467 33.9144 158.77 33.8623 159.076 33.8624C159.299 33.8488 159.522 33.8793 159.733 33.9523C159.945 34.0253 160.139 34.1394 160.307 34.288C160.458 34.4483 160.576 34.6383 160.651 34.8461C160.726 35.0538 160.758 35.2749 160.744 35.4956V38.1064H159.944V37.8074C159.616 38.0356 159.223 38.151 158.823 38.1363C158.422 38.153 158.026 38.0331 157.7 37.7959C157.555 37.6825 157.437 37.5365 157.358 37.3695C157.278 37.2026 157.238 37.0194 157.242 36.8344C157.234 36.6481 157.272 36.4628 157.352 36.2945C157.432 36.1262 157.551 35.98 157.7 35.8683C158.047 35.6395 158.458 35.529 158.872 35.5531H159.926V35.4818C159.936 35.3672 159.922 35.2518 159.886 35.1426C159.849 35.0335 159.791 34.9329 159.715 34.8469C159.527 34.6926 159.286 34.6175 159.044 34.6376C158.831 34.6379 158.62 34.6752 158.42 34.748C158.231 34.8158 158.056 34.9197 157.907 35.054L157.714 35.2288L157.272 34.5893L157.423 34.4536C157.64 34.2651 157.89 34.1192 158.161 34.0234L158.179 34.0165ZM51.9275 34.9642C51.8551 35.0576 51.7703 35.1404 51.6753 35.2104C51.8245 35.2929 51.9593 35.3993 52.0742 35.5255C52.3033 35.7835 52.4277 36.1184 52.4226 36.464C52.423 36.702 52.3664 36.9366 52.2575 37.1479C52.1485 37.3593 51.9905 37.5413 51.7968 37.6786C51.3525 37.9897 50.821 38.1508 50.2793 38.1386C49.9129 38.1378 49.5496 38.0716 49.2064 37.9431C48.873 37.8197 48.5663 37.633 48.3032 37.3933L48.168 37.2691L48.5554 36.602L48.764 36.7999C48.9559 36.9781 49.181 37.1165 49.4265 37.207C49.685 37.3053 49.9593 37.3552 50.2357 37.3542C50.5943 37.3664 50.9478 37.2659 51.2466 37.0667C51.3525 36.9949 51.4394 36.8984 51.4997 36.7853C51.56 36.6723 51.592 36.5462 51.5928 36.418C51.5972 36.3095 51.5744 36.2016 51.5263 36.1043C51.4782 36.0071 51.4065 35.9235 51.3177 35.8614C51.042 35.694 50.7225 35.6139 50.4008 35.6313H49.1399V34.8561H50.3847C50.6526 34.8737 50.9189 34.8035 51.1435 34.656C51.2191 34.5961 51.2793 34.5189 51.3192 34.4309C51.3591 34.3428 51.3774 34.2465 51.3727 34.15C51.3709 34.0385 51.3427 33.9291 51.2905 33.8307C51.2383 33.7323 51.1635 33.6478 51.0724 33.5841C50.8104 33.4088 50.4999 33.3211 50.1853 33.3334C49.9521 33.3328 49.7203 33.3677 49.4976 33.4369C49.2728 33.5047 49.0589 33.6046 48.8626 33.7336L48.6333 33.8831L48.3216 33.1539L48.4912 33.0481C48.7476 32.8885 49.0244 32.7646 49.3142 32.6801C49.6004 32.5974 49.8966 32.5548 50.1944 32.5536C50.7024 32.5392 51.2015 32.6892 51.618 32.9814C51.8004 33.1119 51.9487 33.2845 52.0505 33.4848C52.1522 33.685 52.2044 33.9068 52.2026 34.1316C52.2067 34.4322 52.1098 34.7256 51.9275 34.9642Z" fill="#2B2A29"/>
</svg>
