<svg width="48" height="48" viewBox="0 0 48 48" fill="none" xmlns="http://www.w3.org/2000/svg">
<path fill-rule="evenodd" clip-rule="evenodd" d="M35.9988 19.1173C35.9988 14.5439 33.0306 13.5824 30.5301 13.5824C28.2038 13.5824 25.5775 16.2046 24.7657 17.2119C24.3902 17.6839 23.6098 17.6839 23.2343 17.2119C22.4225 16.2024 19.7962 13.5824 17.4678 13.5824C14.9673 13.5824 11.9991 14.5439 11.9991 19.1173C11.9991 22.0957 14.8897 24.862 14.9212 24.8948L24 34.009L33.062 24.9123C33.1082 24.862 35.9988 22.0957 35.9988 19.1173ZM38 19.1173C38 23.0243 34.5619 26.2955 34.4213 26.4419L24.688 36.2072C24.5013 36.4017 24.2496 36.5 24 36.5C23.7504 36.5 23.5007 36.4017 23.312 36.2072L13.5619 26.4091C13.4381 26.2955 10 23.0243 10 19.1173C10 14.3494 12.7962 11.5 17.4678 11.5C20.2032 11.5 22.7666 13.7463 24 15.0159C25.2334 13.7463 27.7968 11.5 30.5301 11.5C35.2017 11.5 37.9979 14.3472 37.9979 19.1173H38Z" fill="#242424"/>
<circle cx="35" cy="15" r="8" fill="#242424"/>
<path d="M32.8116 11V18H32.0916V11.64H30.4416V11H32.8116ZM39.2648 17.36V18H34.3548V17.49L37.2648 14.64C37.6315 14.28 37.8782 13.97 38.0048 13.71C38.1382 13.4433 38.2048 13.1767 38.2048 12.91C38.2048 12.4967 38.0615 12.1767 37.7748 11.95C37.4948 11.7167 37.0915 11.6 36.5648 11.6C35.7448 11.6 35.1082 11.86 34.6548 12.38L34.1448 11.94C34.4182 11.62 34.7648 11.3733 35.1848 11.2C35.6115 11.0267 36.0915 10.94 36.6248 10.94C37.3382 10.94 37.9015 11.11 38.3148 11.45C38.7348 11.7833 38.9448 12.2433 38.9448 12.83C38.9448 13.19 38.8648 13.5367 38.7048 13.87C38.5448 14.2033 38.2415 14.5867 37.7948 15.02L35.4148 17.36H39.2648Z" fill="white"/>
</svg>
