<svg width="24" height="24" viewBox="0 0 24 24" fill="none" xmlns="http://www.w3.org/2000/svg">
<path fill-rule="evenodd" clip-rule="evenodd" d="M5 20.9996H9C9.53043 20.9996 10.0391 20.7889 10.4142 20.4139C10.7893 20.0388 11 19.5301 11 18.9996V15.3156H13V18.9996C13 19.5301 13.2107 20.0388 13.5858 20.4139C13.9609 20.7889 14.4696 20.9996 15 20.9996H19C19.5304 20.9996 20.0391 20.7889 20.4142 20.4139C20.7893 20.0388 21 19.5301 21 18.9996V11.0746C21.0001 10.7725 20.9318 10.4743 20.8002 10.2024C20.6685 9.93051 20.477 9.69195 20.24 9.50465L13.24 3.97865C12.8869 3.69963 12.45 3.54785 12 3.54785C11.55 3.54785 11.1131 3.69963 10.76 3.97865L3.76 9.50465C3.52297 9.69195 3.33145 9.93051 3.19983 10.2024C3.0682 10.4743 2.99988 10.7725 3 11.0746V18.9996C3 19.5301 3.21071 20.0388 3.58579 20.4139C3.96086 20.7889 4.46957 20.9996 5 20.9996ZM5 18.9996H9V14.9996C9 14.4692 9.21071 13.9605 9.58579 13.5854C9.96086 13.2104 10.4696 12.9996 11 12.9996H13C13.5304 12.9996 14.0391 13.2104 14.4142 13.5854C14.7893 13.9605 15 14.4692 15 14.9996V18.9996H19V10.9996L12 5.49965L5 10.9996V18.9996Z" fill="#666666"/>
</svg>
