<svg width="99" height="97" viewBox="0 0 99 97" fill="none" xmlns="http://www.w3.org/2000/svg">
<g clip-path="url(#clip0_296_2358)">
<path d="M89.1333 46.0342H9.86614C9.51399 46.0342 9.22852 46.3204 9.22852 46.6734V94.85C9.22852 95.203 9.51399 95.4892 9.86614 95.4892H89.1333C89.4854 95.4892 89.7709 95.203 89.7709 94.85V46.6734C89.7709 46.3204 89.4854 46.0342 89.1333 46.0342Z" stroke="#515151" stroke-width="3" stroke-miterlimit="10"/>
<path d="M43.4089 23.8301V46.0344H4.06056C3.20611 46.0344 2.38665 45.6941 1.78247 45.0884C1.17828 44.4827 0.838867 43.6612 0.838867 42.8047V27.0598C0.838867 26.2032 1.17828 25.3817 1.78247 24.776C2.38665 24.1703 3.20611 23.8301 4.06056 23.8301H43.4089Z" stroke="#515151" stroke-width="3" stroke-miterlimit="10"/>
<path d="M98.1606 27.0598V42.8047C98.1606 43.6612 97.8212 44.4827 97.217 45.0884C96.6128 45.6941 95.7934 46.0344 94.9389 46.0344H56.1611V23.8301H94.9389C95.7934 23.8301 96.6128 24.1703 97.217 24.776C97.8212 25.3817 98.1606 26.2032 98.1606 27.0598Z" stroke="#515151" stroke-width="3" stroke-miterlimit="10"/>
<path d="M56.1617 23.8301H43.4092V46.0344H56.1617V23.8301Z" stroke="#515151" stroke-width="3" stroke-miterlimit="10"/>
<path d="M56.1617 46.0347H43.4092V95.4897H56.1617V46.0347Z" stroke="#515151" stroke-width="3" stroke-miterlimit="10"/>
<path d="M30.2038 24.0491C24.3477 18.1447 24.5323 9.1116 29.0796 4.53616C34.1135 -0.510272 44.6343 -0.1234 50.1212 7.564" stroke="#515151" stroke-width="3" stroke-miterlimit="10"/>
<path d="M50.1211 7.56362C55.5913 -0.123783 66.0786 -0.561119 71.146 4.53578C75.6933 9.11121 75.8947 18.1443 70.0386 24.0487" stroke="#515151" stroke-width="3" stroke-miterlimit="10"/>
<path d="M50.1211 7.56348V23.8298" stroke="#515151" stroke-width="3" stroke-miterlimit="10"/>
</g>
<defs>
<clipPath id="clip0_296_2358">
<rect width="99" height="96" fill="white" transform="translate(0 0.330566)"/>
</clipPath>
</defs>
</svg>
