<svg width="48" height="48" viewBox="0 0 48 48" fill="none" xmlns="http://www.w3.org/2000/svg">
<g clip-path="url(#clip0_4003_578)">
<path d="M37 40.7063H11V16.4206H37V40.7063ZM12.625 39.0873H35.375V18.0396H12.625V39.0873Z" fill="#242424"/>
<path d="M32.5764 18.0396H15.4246L15.2832 17.4066C15.1442 16.8289 15.0711 16.2375 15.0654 15.6434C15.0654 11.0016 19.0727 7.2244 23.9997 7.2244C28.9283 7.2244 32.9372 11.0016 32.9372 15.6434C32.9372 16.1858 32.8689 16.7476 32.7194 17.4066L32.5764 18.0396ZM16.7489 16.4206H31.2537C31.2943 16.1437 31.3138 15.8895 31.3138 15.6434C31.3122 11.8937 28.0297 8.84344 23.9997 8.84344C19.9697 8.84344 16.6921 11.8937 16.6921 15.6434C16.6904 15.8895 16.7067 16.1437 16.7489 16.4206Z" fill="#242424"/>
</g>
<circle cx="35" cy="15" r="8" fill="#242424"/>
<path d="M32.8116 11V18H32.0916V11.64H30.4416V11H32.8116ZM39.2648 17.36V18H34.3548V17.49L37.2648 14.64C37.6315 14.28 37.8782 13.97 38.0048 13.71C38.1382 13.4433 38.2048 13.1767 38.2048 12.91C38.2048 12.4967 38.0615 12.1767 37.7748 11.95C37.4948 11.7167 37.0915 11.6 36.5648 11.6C35.7448 11.6 35.1082 11.86 34.6548 12.38L34.1448 11.94C34.4182 11.62 34.7648 11.3733 35.1848 11.2C35.6115 11.0267 36.0915 10.94 36.6248 10.94C37.3382 10.94 37.9015 11.11 38.3148 11.45C38.7348 11.7833 38.9448 12.2433 38.9448 12.83C38.9448 13.19 38.8648 13.5367 38.7048 13.87C38.5448 14.2033 38.2415 14.5867 37.7948 15.02L35.4148 17.36H39.2648Z" fill="white"/>
<defs>
<clipPath id="clip0_4003_578">
<rect width="26" height="34" fill="white" transform="translate(11 7.2244)"/>
</clipPath>
</defs>
</svg>
