<svg width="38" height="34" viewBox="0 0 38 34" fill="none" xmlns="http://www.w3.org/2000/svg">
<path d="M34.1463 17.4837C34.1618 17.4634 34.1764 17.4434 34.1885 17.4204C34.2021 17.3954 34.2119 17.37 34.221 17.3433C34.2261 17.3288 34.2349 17.3166 34.2386 17.3014C34.241 17.2916 34.2389 17.2814 34.2403 17.2713C34.2447 17.2445 34.245 17.2178 34.245 17.1901C34.245 17.1623 34.244 17.1356 34.2393 17.1086C34.2376 17.0988 34.2396 17.0893 34.2373 17.0802C34.2335 17.0649 34.2244 17.0531 34.2193 17.0385C34.2099 17.0108 34.1994 16.9848 34.1855 16.9594C34.1733 16.9384 34.1595 16.9198 34.1446 16.9009C34.127 16.8786 34.1091 16.8579 34.0881 16.839C34.0685 16.8214 34.0468 16.8072 34.0242 16.7933C34.01 16.7845 33.9991 16.7717 33.9836 16.7642L14.0268 6.95495C13.8469 6.86565 13.6297 6.89948 13.4846 7.03918C13.3395 7.17888 13.2972 7.39434 13.3794 7.57869L17.661 17.204L13.7099 27.1644C13.6395 27.3424 13.6821 27.5446 13.8164 27.6789C13.8222 27.6847 13.8276 27.6901 13.8337 27.6955C13.9818 27.8294 14.197 27.8572 14.3742 27.7659L33.9927 17.6183C34.0066 17.6112 34.0164 17.5994 34.0292 17.5906C34.0522 17.5757 34.0735 17.5605 34.0935 17.5419C34.1131 17.5236 34.13 17.5047 34.1463 17.4837ZM14.7899 8.39523L31.7156 16.7145H18.4907L14.7899 8.39523ZM15.0707 26.3279L18.5046 17.6714L31.8069 17.6711L15.0707 26.3279Z" fill="#242424"/>
<path d="M13.9551 17.1914C13.9551 16.9269 13.7414 16.7131 13.4769 16.7131H4.00751C3.74304 16.7131 3.5293 16.9269 3.5293 17.1914C3.5293 17.3233 3.58274 17.443 3.66932 17.5296C3.75589 17.6162 3.87561 17.6696 4.00751 17.6696H13.4769C13.7414 17.6696 13.9551 17.4558 13.9551 17.1914Z" fill="#242424"/>
<path d="M12.4636 20.4348H7.72738C7.46282 20.4348 7.24902 20.6486 7.24902 20.9131C7.24902 21.0451 7.30247 21.1648 7.38907 21.2514C7.47568 21.338 7.59544 21.3915 7.72738 21.3915H12.4636C12.7282 21.3915 12.942 21.1777 12.942 20.9131C12.942 20.6486 12.7282 20.4348 12.4636 20.4348Z" fill="#242424"/>
<path d="M7.38907 13.8104C7.47567 13.897 7.59543 13.9505 7.72736 13.9505H12.4635C12.728 13.9505 12.9418 13.7366 12.9418 13.4721C12.9418 13.2075 12.728 12.9937 12.4635 12.9937H7.72736C7.46282 12.9937 7.24902 13.2075 7.24902 13.4721C7.24902 13.604 7.30247 13.7238 7.38907 13.8104Z" fill="#242424"/>
</svg>
