<svg width="32" height="33" viewBox="0 0 32 33" fill="none" xmlns="http://www.w3.org/2000/svg">
<circle cx="16" cy="16.3306" r="16" fill="#2FC6F6"/>
<circle cx="16" cy="16.3306" r="16" fill="url(#paint0_linear_284_1493)"/>
<path fill-rule="evenodd" clip-rule="evenodd" d="M6.97768 17.3157L10.4818 18.4574C10.5408 18.4677 10.6015 18.464 10.6589 18.4466L10.6611 18.4453C11.4691 17.935 18.6787 13.3821 19.095 13.229C19.1606 13.2092 19.2094 13.2315 19.1965 13.2769C19.0295 13.8622 12.7567 19.438 12.7567 19.438C12.7567 19.438 12.7311 19.4671 12.7161 19.5028L12.7095 19.4989L12.3825 22.9743C12.3825 22.9743 12.2457 24.0392 13.3103 22.9743C14.0605 22.224 14.7881 21.5946 15.1524 21.2883C16.357 22.12 17.6536 23.0402 18.2129 23.5213C18.3066 23.6122 18.4177 23.6834 18.5395 23.7305C18.6613 23.7776 18.7913 23.7997 18.9219 23.7955C19.453 23.7755 19.6012 23.1921 19.6012 23.1921C19.6012 23.1921 22.079 13.2218 22.1618 11.8859C22.165 11.8353 22.1686 11.7918 22.1718 11.7522C22.177 11.6896 22.1813 11.6369 22.182 11.5818C22.1863 11.4778 22.1761 11.3737 22.1516 11.2725C22.1392 11.2152 22.1117 11.1622 22.0721 11.119C22.0325 11.0758 21.9821 11.0439 21.9261 11.0266C21.6997 10.9406 21.3158 11.0699 21.3158 11.0699C21.3158 11.0699 7.72143 15.9561 6.94501 16.4973C6.7775 16.6135 6.7215 16.6811 6.69375 16.7605C6.5589 17.1458 6.97768 17.3157 6.97768 17.3157Z" fill="white"/>
<defs>
<linearGradient id="paint0_linear_284_1493" x1="16" y1="32.3306" x2="16" y2="0.330566" gradientUnits="userSpaceOnUse">
<stop stop-color="#1D93D2"/>
<stop offset="1" stop-color="#38B0E3"/>
</linearGradient>
</defs>
</svg>
