<svg width="32" height="33" viewBox="0 0 32 33" fill="none" xmlns="http://www.w3.org/2000/svg">
<path d="M0 16.3306C0 7.49401 7.16344 0.330566 16 0.330566C24.8366 0.330566 32 7.49401 32 16.3306C32 25.1671 24.8366 32.3306 16 32.3306C7.16344 32.3306 0 25.1671 0 16.3306Z" fill="#FF0000"/>
<path d="M24.1768 12.3793C23.9805 11.6253 23.4022 11.0316 22.6679 10.8301C21.3371 10.4639 16.0001 10.4639 16.0001 10.4639C16.0001 10.4639 10.6632 10.4639 9.3323 10.8301C8.59795 11.0316 8.01962 11.6253 7.82335 12.3793C7.4668 13.7459 7.4668 16.5972 7.4668 16.5972C7.4668 16.5972 7.4668 19.4484 7.82335 20.8151C8.01962 21.5691 8.59795 22.1628 9.3323 22.3644C10.6632 22.7305 16.0001 22.7305 16.0001 22.7305C16.0001 22.7305 21.3371 22.7305 22.6679 22.3644C23.4022 22.1628 23.9805 21.5691 24.1768 20.8151C24.5335 19.4484 24.5335 16.5972 24.5335 16.5972C24.5335 16.5972 24.5335 13.7459 24.1768 12.3793Z" fill="white"/>
<path d="M14.4004 19.5306V14.1973L18.6671 16.864L14.4004 19.5306Z" fill="#FF0000"/>
</svg>
