<svg width="29" height="31" viewBox="0 0 29 31" fill="none" xmlns="http://www.w3.org/2000/svg">
<path fill-rule="evenodd" clip-rule="evenodd" d="M2 10C2 9.73478 2.10536 9.48043 2.29289 9.29289C2.48043 9.10536 2.73478 9 3 9H3.768C4.23533 9.00018 4.68784 9.16401 5.04697 9.46304C5.4061 9.76208 5.64918 10.1774 5.734 10.637L5.986 12H19.743C20.0439 12 20.341 12.0678 20.612 12.1985C20.8831 12.3292 21.1211 12.5194 21.3084 12.7549C21.4958 12.9904 21.6276 13.2651 21.694 13.5586C21.7604 13.8521 21.7597 14.1568 21.692 14.45L19.846 22.45C19.7442 22.8908 19.4959 23.2841 19.1418 23.5656C18.7876 23.8472 18.3484 24.0003 17.896 24H7.019C6.77904 24.0044 6.54549 23.9224 6.36098 23.769C6.17647 23.6155 6.05332 23.4008 6.014 23.164L3.768 11H3C2.73478 11 2.48043 10.8946 2.29289 10.7071C2.10536 10.5196 2 10.2652 2 10ZM7.832 22H17.897L19.743 14H6.355L7.832 22ZM8 25C7.46957 25 6.96086 25.2107 6.58579 25.5858C6.21071 25.9609 6 26.4696 6 27C6 27.5304 6.21071 28.0391 6.58579 28.4142C6.96086 28.7893 7.46957 29 8 29C8.53043 29 9.03914 28.7893 9.41421 28.4142C9.78929 28.0391 10 27.5304 10 27C10 26.4696 9.78929 25.9609 9.41421 25.5858C9.03914 25.2107 8.53043 25 8 25ZM18 25C17.4696 25 16.9609 25.2107 16.5858 25.5858C16.2107 25.9609 16 26.4696 16 27C16 27.5304 16.2107 28.0391 16.5858 28.4142C16.9609 28.7893 17.4696 29 18 29C18.5304 29 19.0391 28.7893 19.4142 28.4142C19.7893 28.0391 20 27.5304 20 27C20 26.4696 19.7893 25.9609 19.4142 25.5858C19.0391 25.2107 18.5304 25 18 25Z" fill="#666666"/>
<rect x="12" width="17" height="17" rx="8.5" fill="#E0493E"/>
<path d="M20.48 7.7C21.36 7.748 22.028 7.988 22.484 8.42C22.948 8.844 23.18 9.4 23.18 10.088C23.18 10.568 23.064 10.996 22.832 11.372C22.6 11.74 22.256 12.032 21.8 12.248C21.344 12.464 20.788 12.572 20.132 12.572C19.524 12.572 18.948 12.476 18.404 12.284C17.868 12.084 17.436 11.82 17.108 11.492L17.528 10.808C17.808 11.096 18.18 11.332 18.644 11.516C19.108 11.692 19.604 11.78 20.132 11.78C20.82 11.78 21.352 11.632 21.728 11.336C22.104 11.032 22.292 10.616 22.292 10.088C22.292 9.568 22.104 9.16 21.728 8.864C21.352 8.568 20.784 8.42 20.024 8.42H19.424V7.784L21.752 4.868H17.456V4.1H22.856V4.712L20.48 7.7Z" fill="white"/>
</svg>
