<svg width="85" height="99" viewBox="0 0 85 99" fill="none" xmlns="http://www.w3.org/2000/svg">
<g clip-path="url(#clip0_296_2336)">
<path d="M26.1265 85.2489C32.3367 80.6535 39.3339 74.0498 38.41 67.2419C37.7599 62.5104 33.5514 59.566 32.1485 58.4597C24.9461 52.8942 17.7094 38.8188 17.2988 1.68164H42.4646H67.6304C67.2027 38.8188 59.966 52.8942 52.7807 58.4597C51.3779 59.566 47.1522 62.5104 46.5192 67.2419C45.5954 74.0498 52.5925 80.6535 58.8027 85.2489" stroke="#515151" stroke-width="3" stroke-miterlimit="10"/>
<path d="M67.375 10.9405L83.5934 10.7192C83.7131 13.4424 84.3975 34.0874 69.4451 45.0993C66.4396 47.3195 63.0711 49.0066 59.4883 50.086" stroke="#515151" stroke-width="3" stroke-miterlimit="10"/>
<path d="M25.4945 50.0859C21.9174 49.0325 18.5493 47.3744 15.5376 45.1842C0.585303 34.1724 1.26961 13.5274 1.38937 10.8042L17.5735 10.9403" stroke="#515151" stroke-width="3" stroke-miterlimit="10"/>
<path d="M64.2276 85.2998H20.7734V97.9796H64.2276V85.2998Z" stroke="#515151" stroke-width="3" stroke-miterlimit="10"/>
<path d="M40.1658 20.4733L42.863 15.7632L45.5601 20.4733C45.8503 20.9801 46.3459 21.3364 46.9187 21.4502L52.2605 22.5111L48.5911 26.4399C48.1859 26.8737 47.9922 27.4638 48.0614 28.0533L48.687 33.381L43.6921 31.1309C43.1649 30.8933 42.5611 30.8933 42.0338 31.1309L37.0389 33.381L37.6645 28.0533C37.7337 27.4638 37.54 26.8737 37.1349 26.4399L33.4654 22.5111L38.8072 21.4502C39.3801 21.3364 39.8756 20.9801 40.1658 20.4733Z" stroke="#515151" stroke-width="3"/>
</g>
<defs>
<clipPath id="clip0_296_2336">
<rect width="84" height="98" fill="white" transform="translate(0.5 0.830566)"/>
</clipPath>
</defs>
</svg>
