<svg width="129" height="87" viewBox="0 0 129 87" fill="none" xmlns="http://www.w3.org/2000/svg">
<g clip-path="url(#clip0_296_2345)">
<path d="M65.922 6.19982C59.8076 1.84919 54.8406 1.02656 51.3669 1.1373C43.5863 1.37461 39.7982 6.34224 31.3418 6.08911C27.6723 5.94221 24.0876 4.93454 20.8734 3.14648L1.06836 30.8797L22.9639 50.07" stroke="#515151" stroke-width="3" stroke-miterlimit="10"/>
<path d="M34.4793 49.0345L33.9458 48.4976C31.7483 46.2857 28.1854 46.2857 25.9878 48.4975L21.2864 53.2295C19.0888 55.4413 19.0889 59.0274 21.2864 61.2392L21.8199 61.7762C24.0174 63.988 27.5803 63.988 29.7779 61.7762L34.4793 57.0442C36.6769 54.8324 36.6769 51.2463 34.4793 49.0345Z" stroke="#515151" stroke-width="3" stroke-miterlimit="10"/>
<path d="M70.3232 71.3804L79.0312 80.1291C79.5526 80.6562 80.1723 81.0745 80.8547 81.3599C81.5371 81.6453 82.2689 81.7922 83.0079 81.7922C83.7469 81.7922 84.4787 81.6453 85.1611 81.3599C85.8436 81.0745 86.4632 80.6562 86.9846 80.1291L87.5191 79.607C88.5701 78.5403 89.1599 77.0989 89.1599 75.5965C89.1599 74.0942 88.5701 72.6527 87.5191 71.586" stroke="#515151" stroke-width="3" stroke-miterlimit="10"/>
<path d="M75.2744 59.2145L90.2539 74.2914C90.8864 74.9314 91.6384 75.4393 92.4665 75.7858C93.2946 76.1324 94.1826 76.3108 95.0795 76.3108C95.9763 76.3108 96.8644 76.1324 97.6925 75.7858C98.5206 75.4393 99.2725 74.9314 99.905 74.2914C101.181 73.0042 101.897 71.2604 101.897 69.4424C101.897 67.6244 101.181 65.8805 99.905 64.5934L84.1867 48.7729" stroke="#515151" stroke-width="3" stroke-miterlimit="10"/>
<path d="M82.5214 47.1591L102.264 67.0296C102.895 67.6692 103.645 68.1767 104.472 68.5231C105.299 68.8694 106.186 69.0477 107.081 69.0477C107.977 69.0477 108.863 68.8694 109.69 68.5231C110.517 68.1767 111.268 67.6692 111.899 67.0296C112.534 66.3927 113.037 65.6357 113.379 64.8021C113.722 63.9685 113.897 63.0748 113.895 62.1727C113.812 60.3738 113.106 58.661 111.899 57.3317C109.022 53.7563 96.1806 40.7202 78.246 23.4443C77.6008 22.9017 76.8213 22.5459 75.9906 22.4149C75.16 22.2839 74.3097 22.3827 73.5305 22.7007L58.0637 38.268C57.5136 38.8059 55.3759 40.736 53.254 40.2614C50.5347 39.676 48.1927 35.2622 49.4658 29.6143C50.3712 26.0677 51.7513 22.6615 53.5683 19.4892C56.5021 13.8173 61.0136 9.12803 66.5516 5.99428C70.9819 3.36388 76.1015 2.15016 81.2325 2.51381C89.7204 3.38394 92.2353 9.01599 100.409 9.15837C103.807 9.16814 107.155 8.33117 110.154 6.72206C116.085 16.6362 122.021 26.5503 127.963 36.4645L107.325 51.9686" stroke="#515151" stroke-width="3" stroke-miterlimit="10"/>
<path d="M49.7452 52.7776L48.2114 51.2338C46.0139 49.022 42.4509 49.0221 40.2534 51.2339L29.7724 61.783C27.5749 63.9948 27.5749 67.5808 29.7724 69.7927L31.3062 71.3364C33.5038 73.5483 37.0667 73.5483 39.2642 71.3365L49.7452 60.7874C51.9427 58.5756 51.9427 54.9894 49.7452 52.7776Z" stroke="#515151" stroke-width="3" stroke-miterlimit="10"/>
<path d="M61.0079 60.5858L59.4741 59.042C57.2766 56.8302 53.7137 56.8301 51.5161 59.042L41.7353 68.8863C39.5378 71.0981 39.5378 74.6842 41.7354 76.896L43.2692 78.4398C45.4667 80.6516 49.0296 80.6516 51.2271 78.4398L61.0079 68.5954C63.2055 66.3836 63.2055 62.7976 61.0079 60.5858Z" stroke="#515151" stroke-width="3" stroke-miterlimit="10"/>
<path d="M61.8356 67.5835C62.5997 68.0473 63.257 68.6694 63.7638 69.4086C64.2706 70.1478 64.6153 70.9872 64.7749 71.8708C65.0578 74.6394 62.4486 75.8892 62.7787 78.7369C63.1087 81.5846 65.5923 82.075 65.1993 83.483C64.6806 85.2866 59.9965 86.1883 56.287 84.9543C53.5174 83.9356 51.2324 81.9013 49.8896 79.259" stroke="#515151" stroke-width="3" stroke-miterlimit="10"/>
<path d="M65.1992 83.5145C67.6126 84.2634 70.1833 84.3345 72.6339 83.7202C74.9606 83.1252 77.0909 81.9249 78.8112 80.2397" stroke="#515151" stroke-width="3" stroke-miterlimit="10"/>
</g>
<defs>
<clipPath id="clip0_296_2345">
<rect width="129" height="86" fill="white" transform="translate(0 0.330566)"/>
</clipPath>
</defs>
</svg>
