<svg width="20" height="20" viewBox="0 0 20 20" fill="none" xmlns="http://www.w3.org/2000/svg">
<path d="M9.16667 9.91666V14.1667C9.16667 14.3877 9.25446 14.5996 9.41074 14.7559C9.56702 14.9122 9.77899 15 10 15C10.221 15 10.433 14.9122 10.5893 14.7559C10.7455 14.5996 10.8333 14.3877 10.8333 14.1667V9.91666C11.845 9.71015 12.744 9.13534 13.356 8.30367C13.968 7.472 14.2493 6.44273 14.1456 5.41539C14.0418 4.38805 13.5602 3.43585 12.7943 2.74338C12.0283 2.05091 11.0326 1.66751 10 1.66751C8.96744 1.66751 7.97165 2.05091 7.20571 2.74338C6.43976 3.43585 5.95821 4.38805 5.85443 5.41539C5.75065 6.44273 6.03202 7.472 6.644 8.30367C7.25598 9.13534 8.15496 9.71015 9.16667 9.91666ZM10 3.33333C10.3283 3.33333 10.6534 3.39799 10.9567 3.52363C11.26 3.64927 11.5356 3.83341 11.7678 4.06556C11.9999 4.29771 12.1841 4.5733 12.3097 4.87662C12.4353 5.17993 12.5 5.50502 12.5 5.83333C12.5 6.16163 12.4353 6.48672 12.3097 6.79004C12.1841 7.09335 11.9999 7.36895 11.7678 7.60109C11.5356 7.83324 11.26 8.01739 10.9567 8.14303C10.6534 8.26866 10.3283 8.33333 10 8.33333C9.33696 8.33333 8.70107 8.06994 8.23223 7.60109C7.76339 7.13225 7.5 6.49637 7.5 5.83333C7.5 5.17029 7.76339 4.5344 8.23223 4.06556C8.70107 3.59672 9.33696 3.33333 10 3.33333ZM13.5083 12.0167C13.3989 11.9937 13.286 11.9925 13.1761 12.0131C13.0662 12.0338 12.9615 12.0759 12.8678 12.137C12.7742 12.1981 12.6935 12.2771 12.6304 12.3694C12.5673 12.4617 12.523 12.5656 12.5 12.675C12.477 12.7844 12.4758 12.8973 12.4965 13.0072C12.5171 13.1171 12.5592 13.2219 12.6203 13.3155C12.6815 13.4091 12.7604 13.4898 12.8528 13.5529C12.9451 13.616 13.0489 13.6603 13.1583 13.6833C15.05 14.0583 15.8333 14.7333 15.8333 15C15.8333 15.4833 13.7917 16.6667 10 16.6667C6.20833 16.6667 4.16667 15.4833 4.16667 15C4.16667 14.7333 4.95 14.0583 6.84167 13.65C7.05356 13.5947 7.23606 13.46 7.35132 13.2738C7.46659 13.0876 7.50578 12.8642 7.46077 12.6499C7.41577 12.4356 7.29002 12.2468 7.10959 12.1227C6.92916 11.9986 6.7079 11.9487 6.49167 11.9833C3.95833 12.5667 2.5 13.6583 2.5 15C2.5 17.1917 6.275 18.3333 10 18.3333C13.725 18.3333 17.5 17.1917 17.5 15C17.5 13.6583 16.0417 12.5667 13.5083 12.0167Z" fill="#242424"/>
</svg>
