<svg width="24" height="24" viewBox="0 0 24 24" fill="none" xmlns="http://www.w3.org/2000/svg">
<path d="M19.31 17.9L20.306 18.908C20.4867 19.0947 20.587 19.3448 20.5854 19.6046C20.5838 19.8644 20.4805 20.1132 20.2975 20.2977C20.1146 20.4822 19.8667 20.5876 19.6069 20.5914C19.3472 20.5952 19.0962 20.4971 18.908 20.318L17.88 19.32C17.19 19.75 16.37 20 15.5 20C13 20 11 18 11 15.5C11 13 13 11 15.5 11C18 11 20 13 20 15.5C20 16.38 19.75 17.21 19.31 17.9ZM15.5 18C16.163 18 16.7989 17.7366 17.2678 17.2678C17.7366 16.7989 18 16.163 18 15.5C18 14.837 17.7366 14.2011 17.2678 13.7322C16.7989 13.2634 16.163 13 15.5 13C14.837 13 14.2011 13.2634 13.7322 13.7322C13.2634 14.2011 13 14.837 13 15.5C13 16.163 13.2634 16.7989 13.7322 17.2678C14.2011 17.7366 14.837 18 15.5 18ZM20 3C20.2652 3 20.5196 3.10536 20.7071 3.29289C20.8946 3.48043 21 3.73478 21 4C21 4.26522 20.8946 4.51957 20.7071 4.70711C20.5196 4.89464 20.2652 5 20 5H4C3.73478 5 3.48043 4.89464 3.29289 4.70711C3.10536 4.51957 3 4.26522 3 4C3 3.73478 3.10536 3.48043 3.29289 3.29289C3.48043 3.10536 3.73478 3 4 3H20ZM4 15C3.73478 15 3.48043 14.8946 3.29289 14.7071C3.10536 14.5196 3 14.2652 3 14C3 13.7348 3.10536 13.4804 3.29289 13.2929C3.48043 13.1054 3.73478 13 4 13H8C8.26522 13 8.51957 13.1054 8.70711 13.2929C8.89464 13.4804 9 13.7348 9 14C9 14.2652 8.89464 14.5196 8.70711 14.7071C8.51957 14.8946 8.26522 15 8 15H4ZM4 10C3.73478 10 3.48043 9.89464 3.29289 9.70711C3.10536 9.51957 3 9.26522 3 9C3 8.73478 3.10536 8.48043 3.29289 8.29289C3.48043 8.10536 3.73478 8 4 8H20C20.2652 8 20.5196 8.10536 20.7071 8.29289C20.8946 8.48043 21 8.73478 21 9C21 9.26522 20.8946 9.51957 20.7071 9.70711C20.5196 9.89464 20.2652 10 20 10H18.97C17.96 9.37 16.77 9 15.5 9C14.23 9 13.04 9.37 12.03 10H4Z" fill="#666666"/>
</svg>
