<svg width="32" height="33" viewBox="0 0 32 33" fill="none" xmlns="http://www.w3.org/2000/svg">
<path d="M0 16.3306C0 7.49401 7.16344 0.330566 16 0.330566C24.8366 0.330566 32 7.49401 32 16.3306C32 25.1671 24.8366 32.3306 16 32.3306C7.16344 32.3306 0 25.1671 0 16.3306Z" fill="#F68634"/>
<path d="M17.7308 19.9574L20.1219 22.2658C20.6118 22.7376 20.6118 23.504 20.1219 23.9763C19.6326 24.4486 18.8395 24.4486 18.3507 23.9763L15.9998 21.708L13.6509 23.9763C13.406 24.2122 13.085 24.3303 12.7641 24.3303C12.4437 24.3303 12.1233 24.2122 11.8783 23.9763C11.389 23.504 11.389 22.7381 11.8778 22.2658L14.2692 19.9574C13.3985 19.766 12.5588 19.433 11.7854 18.9646C11.2001 18.6083 11.0243 17.862 11.3931 17.2965C11.7609 16.7303 12.5343 16.5599 13.1206 16.9161C14.8716 17.9794 17.1274 17.9796 18.8794 16.9161C19.4658 16.5599 20.2389 16.7303 20.6074 17.2965C20.9762 17.8615 20.7999 18.6083 20.2146 18.9646C19.4412 19.4335 18.6015 19.766 17.7308 19.9574Z" fill="white"/>
<path fill-rule="evenodd" clip-rule="evenodd" d="M11.7119 12.4596C11.7119 14.7359 13.6303 16.5874 15.9892 16.5874C18.3486 16.5874 20.2665 14.7359 20.2665 12.4596C20.2665 10.1826 18.3486 8.33057 15.9892 8.33057C13.6303 8.33057 11.7119 10.1826 11.7119 12.4596ZM17.7602 12.4596C17.7602 11.5169 16.9658 10.7503 15.9892 10.7503C15.0134 10.7503 14.2182 11.5169 14.2182 12.4596C14.2182 13.4016 15.0134 14.1687 15.9892 14.1687C16.9658 14.1687 17.7602 13.4016 17.7602 12.4596Z" fill="white"/>
</svg>
