<svg width="131" height="115" viewBox="0 0 131 115" fill="none" xmlns="http://www.w3.org/2000/svg">
<g clip-path="url(#clip0_296_2370)">
<path d="M58.8594 39.4211C66.1637 42.4253 72.2027 47.8933 75.9412 54.888C79.6798 61.8828 80.8853 69.9687 79.351 77.76C77.8166 85.5513 73.6381 92.5628 67.5315 97.5929C61.4249 102.623 53.7704 105.358 45.88 105.33C37.9896 105.302 30.3545 102.513 24.2833 97.4393C18.2121 92.3659 14.0829 85.3249 12.6032 77.5229C11.1236 69.7209 12.3857 61.6437 16.1732 54.6757C19.9608 47.7077 26.0379 42.2827 33.3631 39.3306" stroke="#515151" stroke-width="3" stroke-miterlimit="10"/>
<path d="M34.4279 32.7316L31 28.1527L38.9587 19.3306H54.6524C57.1115 22.3832 59.5558 25.2984 62 28.2748L46.3062 48.3306L34.4279 32.7316Z" stroke="#515151" stroke-width="3" stroke-miterlimit="10"/>
<path d="M46 19.3306L40 28.4215L42.3045 43.3306" stroke="#515151" stroke-width="3" stroke-miterlimit="10"/>
<path d="M46 19.3306L52 28.4272L50.005 43.3306" stroke="#515151" stroke-width="3" stroke-miterlimit="10"/>
<path d="M31 28.3306H62" stroke="#515151" stroke-width="3" stroke-miterlimit="10"/>
<path d="M84 46.9283C83.5176 49.6241 82.1219 52.0525 80.0647 53.7756C78.0076 55.4988 75.4242 56.4033 72.7804 56.326C70.1367 56.2487 67.6066 55.1948 65.6463 53.3542C63.6861 51.5137 62.4246 49.0076 62.0895 46.2879C61.7543 43.5682 62.3675 40.8138 63.8185 38.5215C65.2694 36.2291 67.4627 34.5496 70.0028 33.7858C72.5429 33.022 75.2626 33.2241 77.6716 34.3558C80.0806 35.4874 82.0203 37.4741 83.141 39.9576" stroke="#515151" stroke-miterlimit="10"/>
<path d="M74 44.8439C74.9942 38.2906 75.9883 31.7372 76.9825 25.1838L109.686 1.33057L126 24.3698L93.4907 48.3306L74 44.8439Z" stroke="#515151" stroke-width="3" stroke-miterlimit="10"/>
<path d="M104 6.33057C109.338 13.9922 114.672 21.6588 120 29.3306" stroke="#515151" stroke-width="3" stroke-miterlimit="10"/>
<path d="M83 41.3306C84.6569 41.3306 86 39.7636 86 37.8306C86 35.8976 84.6569 34.3306 83 34.3306C81.3431 34.3306 80 35.8976 80 37.8306C80 39.7636 81.3431 41.3306 83 41.3306Z" stroke="#515151" stroke-miterlimit="10"/>
</g>
<defs>
<clipPath id="clip0_296_2370">
<rect width="131" height="114" fill="white" transform="translate(0 0.330566)"/>
</clipPath>
</defs>
</svg>
