<svg width="23" height="22" viewBox="0 0 23 22" fill="none" xmlns="http://www.w3.org/2000/svg">
<g clip-path="url(#clip0_4003_607)">
<path fill-rule="evenodd" clip-rule="evenodd" d="M19.0752 4.58333H16.1694L14.4919 2.75H8.99186L7.31436 4.58333H4.40853C3.4002 4.58333 2.5752 5.40833 2.5752 6.41667V17.4167C2.5752 18.425 3.4002 19.25 4.40853 19.25H11.6832C11.3536 18.679 11.114 18.0606 10.9728 17.4167H4.40853V6.41667H8.12103L9.79853 4.58333H13.6852L15.3627 6.41667H19.0752V9.89083C19.7295 10.0863 20.3484 10.3849 20.9085 10.7754V6.41667C20.9085 5.40833 20.0835 4.58333 19.0752 4.58333ZM14.9062 10.0632C14.6005 9.54184 14.1706 9.10418 13.6549 8.78911C13.1391 8.47404 12.5535 8.29134 11.9501 8.25725C11.3467 8.22317 10.7442 8.33877 10.1963 8.59376C9.64837 8.84875 9.17196 9.23522 8.80946 9.7188C8.44696 10.2024 8.20961 10.7681 8.11854 11.3655C8.02746 11.963 8.08548 12.5737 8.28743 13.1433C8.48938 13.7129 8.82899 14.2238 9.27606 14.6305C9.72314 15.0371 10.2638 15.327 10.8499 15.4743C10.9049 14.8491 11.0489 14.2496 11.2707 13.6886C10.9808 13.6113 10.7143 13.464 10.4946 13.2597C10.2749 13.0554 10.1087 12.8002 10.0106 12.5167C9.91246 12.2332 9.88543 11.9299 9.93185 11.6335C9.97828 11.3371 10.0967 11.0566 10.2769 10.8166C10.457 10.5767 10.6932 10.3846 10.9649 10.2572C11.2365 10.1298 11.5353 10.0711 11.8349 10.0861C12.1346 10.1012 12.426 10.1895 12.6835 10.3434C12.9411 10.4973 13.1569 10.7121 13.3121 10.9688C13.7977 10.5921 14.3348 10.2871 14.9071 10.0632" fill="#242424"/>
<path fill-rule="evenodd" clip-rule="evenodd" d="M14.3254 18.9585C15.099 19.7321 16.1482 20.1667 17.2422 20.1667C18.3362 20.1667 19.3855 19.7321 20.159 18.9585C20.9326 18.1849 21.3672 17.1357 21.3672 16.0417C21.3672 14.9476 20.9326 13.8984 20.159 13.1248C19.3855 12.3512 18.3362 11.9166 17.2422 11.9166C16.1482 11.9166 15.099 12.3512 14.3254 13.1248C13.5518 13.8984 13.1172 14.9476 13.1172 16.0417C13.1172 17.1357 13.5518 18.1849 14.3254 18.9585ZM15.6215 17.6623C15.8344 17.8752 16.087 18.044 16.3651 18.1592C16.6432 18.2744 16.9412 18.3336 17.2422 18.3336C17.5432 18.3336 17.8412 18.2744 18.1193 18.1592C18.3974 18.044 18.6501 17.8752 18.8629 17.6623C19.0757 17.4495 19.2445 17.1968 19.3597 16.9188C19.4749 16.6407 19.5342 16.3427 19.5342 16.0417C19.5342 15.7407 19.4749 15.4426 19.3597 15.1646C19.2445 14.8865 19.0757 14.6338 18.8629 14.421C18.4331 13.9912 17.8501 13.7497 17.2422 13.7497C16.6343 13.7497 16.0514 13.9912 15.6215 14.421C15.1917 14.8508 14.9502 15.4338 14.9502 16.0417C14.9502 16.6495 15.1917 17.2325 15.6215 17.6623Z" fill="#242424"/>
<path d="M20.1585 17.6623L22.4272 19.9311L21.1311 21.2272L18.8623 18.9585L20.1585 17.6623Z" fill="#242424"/>
</g>
<defs>
<clipPath id="clip0_4003_607">
<rect width="22" height="22" fill="white" transform="translate(0.742188)"/>
</clipPath>
</defs>
</svg>
