<svg width="25" height="24" viewBox="0 0 25 24" fill="none" xmlns="http://www.w3.org/2000/svg">
<path fill-rule="evenodd" clip-rule="evenodd" d="M12.5 3C15.262 3 17.5 5.238 17.5 8C17.5 10.762 15.262 13 12.5 13C9.738 13 7.5 10.762 7.5 8C7.5 5.238 9.738 3 12.5 3ZM12.5 5C10.85 5 9.5 6.35 9.5 8C9.5 9.65 10.85 11 12.5 11C14.15 11 15.5 9.65 15.5 8C15.5 6.35 14.15 5 12.5 5ZM21.5 18V20C21.5 20.2652 21.3946 20.5196 21.2071 20.7071C21.0196 20.8946 20.7652 21 20.5 21H4.5C4.23478 21 3.98043 20.8946 3.79289 20.7071C3.60536 20.5196 3.5 20.2652 3.5 20V18C3.5 15.33 9.83 14 12.5 14C15.17 14 21.5 15.33 21.5 18ZM12.5 15.9C9.53 15.9 5.4 17.36 5.4 18V19.1H19.6V18C19.6 17.36 15.47 15.9 12.5 15.9Z" fill="#666666"/>
</svg>
