<svg width="25" height="26" viewBox="0 0 25 26" fill="none" xmlns="http://www.w3.org/2000/svg">
<path fill-rule="evenodd" clip-rule="evenodd" d="M16.4153 19.0347C14.8354 20.1499 12.912 20.5915 11.0344 20.2701C9.15685 19.9487 7.46546 18.8883 6.30267 17.3036C5.13988 15.7189 4.59258 13.7283 4.77158 11.7349C4.95057 9.7414 5.84248 7.89401 7.26673 6.5667C8.69099 5.23939 10.5412 4.53135 12.4427 4.58592C14.3442 4.64049 16.155 5.45359 17.5084 6.86061C18.8619 8.26763 19.6568 10.1634 19.7324 12.1642C19.8079 14.165 19.1584 16.1212 17.9153 17.6368L21.2323 21.1284L19.8183 22.6168L16.4153 19.0347ZM17.7423 12.4737C17.7423 14.0091 17.1629 15.4817 16.1314 16.5675C15.1 17.6532 13.701 18.2632 12.2423 18.2632C10.7836 18.2632 9.38469 17.6532 8.35324 16.5675C7.32179 15.4817 6.74232 14.0091 6.74232 12.4737C6.74232 10.9382 7.32179 9.46565 8.35324 8.37991C9.38469 7.29417 10.7836 6.68421 12.2423 6.68421C13.701 6.68421 15.1 7.29417 16.1314 8.37991C17.1629 9.46565 17.7423 10.9382 17.7423 12.4737Z" fill="#242424"/>
</svg>
