<svg width="14" height="14" viewBox="0 0 14 14" fill="none" xmlns="http://www.w3.org/2000/svg">
<g clip-path="url(#clip0_555_11981)">
<path d="M6.03262 7.96774C5.04291 6.9781 4.29682 5.87003 3.80111 4.74589C3.69622 4.5082 3.75797 4.22991 3.94153 4.04636L4.63433 3.35445C5.20193 2.78689 5.20193 1.98417 4.70624 1.48849L3.71314 0.49546C3.05248 -0.165153 1.98156 -0.165153 1.32091 0.49546L0.769382 1.04696C0.142566 1.67373 -0.118819 2.57796 0.0503622 3.47457C0.468241 5.68478 1.75233 8.10477 3.82396 10.1763C5.89557 12.2478 8.31572 13.5318 10.5261 13.9496C11.4227 14.1188 12.327 13.8574 12.9538 13.2307L13.5045 12.68C14.1652 12.0194 14.1652 10.9485 13.5045 10.2879L12.5123 9.29574C12.0166 8.80007 11.2129 8.80007 10.7181 9.29574L9.95423 10.0604C9.77068 10.2439 9.49237 10.3057 9.25467 10.2008C8.13047 9.70429 7.02232 8.9574 6.03262 7.96774Z" fill="black"/>
</g>
<defs>
<clipPath id="clip0_555_11981">
<rect width="14" height="14" fill="white"/>
</clipPath>
</defs>
</svg>
