<svg width="32" height="33" viewBox="0 0 32 33" fill="none" xmlns="http://www.w3.org/2000/svg">
<path d="M0 16.3306C0 7.49401 7.16344 0.330566 16 0.330566C24.8366 0.330566 32 7.49401 32 16.3306C32 25.1671 24.8366 32.3306 16 32.3306C7.16344 32.3306 0 25.1671 0 16.3306Z" fill="#4C6C91"/>
<path d="M16.8371 21.5814C16.8371 21.5814 17.1451 21.5478 17.3029 21.3814C17.4473 21.229 17.4423 20.9414 17.4423 20.9414C17.4423 20.9414 17.4231 19.5985 18.0583 19.4002C18.6844 19.2052 19.4882 20.6989 20.3413 21.2733C20.9857 21.7075 21.4749 21.6125 21.4749 21.6125L23.7545 21.5814C23.7545 21.5814 24.9465 21.5092 24.3814 20.5891C24.3347 20.5137 24.0517 19.9082 22.6869 18.6644C21.257 17.3624 21.449 17.573 23.1702 15.3206C24.2186 13.9489 24.6377 13.1115 24.5066 12.7535C24.3822 12.411 23.611 12.5019 23.611 12.5019L21.045 12.5175C21.045 12.5175 20.8547 12.4921 20.7136 12.5748C20.5759 12.656 20.4866 12.8452 20.4866 12.8452C20.4866 12.8452 20.0809 13.9063 19.5391 14.8093C18.3964 16.7135 17.9398 16.8143 17.7528 16.6963C17.3179 16.4201 17.4264 15.5885 17.4264 14.9977C17.4264 13.1517 17.7119 12.3823 16.8713 12.1832C16.5925 12.1168 16.3872 12.0734 15.6735 12.066C14.7578 12.057 13.9832 12.0693 13.5441 12.2799C13.2519 12.42 13.0266 12.733 13.1643 12.751C13.3337 12.7731 13.7177 12.8526 13.9214 13.1246C14.1843 13.4761 14.1751 14.2644 14.1751 14.2644C14.1751 14.2644 14.3262 16.4374 13.8221 16.7069C13.4765 16.8921 13.0023 16.5144 11.9831 14.7863C11.4614 13.9014 11.0674 12.9231 11.0674 12.9231C11.0674 12.9231 10.9915 12.7404 10.8554 12.642C10.691 12.5232 10.4614 12.4864 10.4614 12.4864L8.02318 12.5019C8.02318 12.5019 7.65673 12.5118 7.52234 12.6683C7.40297 12.8067 7.51316 13.0943 7.51316 13.0943C7.51316 13.0943 9.42219 17.4788 11.5841 19.6886C13.5666 21.7141 15.8171 21.5814 15.8171 21.5814H16.8371Z" fill="white"/>
</svg>
