<svg width="18" height="17" fill="none" xmlns="http://www.w3.org/2000/svg"><path d="M2 17h4c.53 0 1.03-.22 1.41-.59.37-.38.59-.88.59-1.41v-3.69h2V15c0 .53.21 1.03.58 1.41.38.37.88.59 1.42.59h4c.53 0 1.03-.22 1.41-.59.37-.38.59-.88.59-1.41V7.07c0-.3-.07-.6-.2-.87a2.25 2.25 0 0 0-.56-.7l-7-5.53a2.015 2.015 0 0 0-2.49 0l-7 5.53c-.23.19-.42.43-.56.7-.13.27-.19.57-.19.87V15c0 .53.21 1.03.58 1.41.38.37.88.59 1.42.59Zm0-2h4v-4c0-.54.21-1.04.58-1.42C6.96 9.21 7.46 9 8 9h2c.53 0 1.03.21 1.41.58.37.38.59.88.59 1.42v4h4V7L9 1.5 2 7v8Z" fill="gray" fill-rule="evenodd"/></svg>